<svg width="1080" height="750" viewBox="0 0 1080 750" fill="none" xmlns="http://www.w3.org/2000/svg">
<path d="M787.687 2.77234C785.693 5.48169 785.511 5.54469 784.242 4.34754C782.973 3.15039 782.973 3.15039 781.613 4.34754C780.888 5.04063 780.344 5.92274 780.344 6.23778C780.344 6.61583 779.891 6.48981 779.438 5.98575C778.894 5.41868 778.259 5.29266 777.897 5.67071C776.628 6.80485 774.18 6.67884 773.727 5.54469C773.364 4.66258 773.274 4.72559 773.183 5.79673C773.183 6.61583 772.73 7.24591 772.186 7.24591C771.733 7.24591 771.279 7.68697 771.279 8.19103C771.279 8.69509 770.826 9.13615 770.192 9.13615C769.648 9.13615 768.197 9.76623 767.019 10.5223C765.659 11.4044 764.934 11.5935 764.934 11.0264C764.934 10.4593 764.209 10.6483 762.758 11.5935L760.583 13.0426L759.948 11.5935L759.314 10.2073L758.226 11.5935C757.229 12.8536 756.957 12.9166 755.869 11.9715C754.872 11.0894 754.509 11.0894 753.24 11.9085C751.881 12.7906 751.518 12.7276 750.068 11.3414C747.62 9.07314 746.26 9.38818 745.082 12.6016C744.085 15.3739 742.272 16.004 742.272 13.5467C742.272 12.9166 741.819 11.5935 741.275 10.5853L740.278 8.82111L738.555 10.2703C737.014 11.5935 736.742 11.6565 735.473 10.8374C734.748 10.2703 734.113 9.45119 734.113 9.01013C734.113 8.50607 733.841 8.44306 733.388 8.88412C733.026 9.19916 731.847 9.5142 730.669 9.5142C729.037 9.5142 728.493 9.07314 728.131 7.11989C727.405 4.28453 725.955 4.59957 725.955 7.56095C725.955 8.7581 725.411 9.95525 724.686 10.2073C724.051 10.4593 723.326 11.1524 723.054 11.6565C722.782 12.1605 722.238 11.4044 721.876 9.89225C720.788 5.48169 719.61 6.61583 718.159 13.5467C717.797 15.3109 716.981 16.004 714.986 16.6341C712.63 17.3272 711.995 17.3272 710.545 16.3821C708.913 15.3739 708.822 15.4369 707.553 18.3983L706.284 21.4227L705.287 19.6585C703.927 17.4532 703.383 17.5162 702.296 19.8475C701.298 21.8008 699.667 22.4308 699.667 20.8556C699.667 20.3516 699.304 19.7845 698.76 19.5325C697.763 19.0914 695.406 22.1158 693.865 25.7703L692.777 28.3536L692.052 25.2662C691.327 21.9898 689.786 19.2174 688.789 19.2174C688.426 19.2174 687.611 17.9573 687.067 16.3821C685.888 13.1057 684.257 12.6646 684.257 15.563C684.166 17.3272 683.985 17.5162 683.078 16.6971C681.628 15.4369 676.914 15.3109 675.01 16.5081C673.56 17.4532 673.379 17.4532 673.288 16.5081C673.197 15.878 673.107 15.1849 673.016 14.8069C672.925 13.9878 668.846 12.0345 668.846 12.8536C668.846 13.1687 668.03 13.6727 667.033 13.8617C666.036 14.0508 665.22 14.7439 665.22 15.3739C665.22 17.1382 663.135 18.0833 660.597 17.3902C658.784 16.9491 657.968 17.2012 656.246 18.5243C654.977 19.4065 653.527 21.2337 652.983 22.6199L651.985 25.0772L650.535 22.9349C649.719 21.7378 648.45 19.6585 647.634 18.2723L646.093 15.815L644.371 17.6422C643.374 18.7134 642.558 20.2886 642.558 21.2337C642.558 22.2418 642.195 22.9979 641.833 22.9979C641.017 22.9979 638.932 20.2256 638.932 19.2174C638.932 18.9024 638.479 17.8943 637.935 16.8861L636.938 15.1219L635.759 16.6971C634.762 17.8313 634.49 17.9573 634.4 17.2012C634.4 16.5711 633.584 15.815 632.496 15.4369C630.411 14.6178 630.502 14.5548 629.051 16.5711C628.417 17.3272 627.601 17.8313 627.148 17.6422C626.694 17.4532 625.516 17.9573 624.519 18.7134C622.615 20.0995 622.615 20.0995 622.615 18.7764C622.615 17.3902 619.986 16.2561 619.08 17.2012C617.992 18.2723 615.545 18.5243 615.001 17.5162C614.548 16.7601 614.185 16.6971 613.097 17.3272C612.009 17.9573 611.465 17.7052 609.924 15.878C608.021 13.6097 605.936 13.2317 604.395 14.8699C603.67 15.626 603.398 15.563 602.582 14.6178C601.766 13.6097 601.403 13.6727 599.59 15.563C596.599 18.7134 595.149 18.2723 593.97 13.8617C592.973 10.2073 592.973 10.1443 591.885 11.8455C591.341 12.8536 590.888 13.9878 590.888 14.4918C590.888 14.9329 590.344 15.4369 589.619 15.626C588.985 15.815 588.078 17.0121 587.806 18.2093C587.443 19.4695 586.809 20.3516 586.356 20.1625C585.902 19.9735 584.815 20.5406 583.999 21.4227C583.183 22.3048 582.277 22.9979 581.914 22.9979C580.826 22.9979 578.922 19.0284 577.653 14.2398C576.928 11.7195 575.387 10.0813 574.571 11.0264C574.027 11.5935 573.665 11.5305 572.94 10.7113C572.124 9.64021 572.033 9.64021 571.127 10.7744C570.583 11.4674 569.767 13.8617 569.132 16.067C567.319 23.439 566.776 23.817 563.603 19.8475C561.518 17.3272 559.705 16.6341 558.889 18.0833C558.526 18.5873 558.164 18.3353 557.801 17.4532C557.439 16.6971 556.623 16.067 555.898 16.067C555.263 16.067 554.447 15.3739 554.085 14.4918C553.45 12.7906 552.816 12.5386 551.275 13.6097C550.549 14.1138 550.096 13.9248 549.643 12.9796C548.827 11.2154 547.921 11.2784 546.651 13.2317C545.564 14.8699 543.751 15.3739 543.751 13.9878C543.751 13.6097 542.935 13.9248 541.938 14.8069C540.941 15.689 540.125 16.067 540.125 15.689C540.125 14.5548 536.499 14.1138 536.499 15.1849C536.499 15.878 536.136 15.941 534.776 15.4369C533.507 14.9959 532.782 14.9959 532.329 15.5C531.604 16.3821 528.884 14.2398 526.981 11.3414L525.802 9.45119L525.077 11.3414C524.714 12.3496 523.717 13.8617 522.901 14.6178L521.36 16.004L519.366 13.2317C518.278 11.6565 517.009 10.2703 516.465 10.0813C516.012 9.82924 515.65 8.88412 515.65 7.81298C515.65 6.80485 515.287 5.98575 514.834 5.98575C514.018 5.98575 512.93 9.57721 512.93 12.4126C512.93 13.4207 512.386 14.1768 511.842 14.1768C510.483 14.1768 508.398 17.0121 508.398 18.7134C508.398 19.3434 508.035 19.8475 507.491 19.8475C507.038 19.8475 506.585 19.4065 506.585 18.9024C506.585 18.3983 506.222 17.9573 505.769 17.9573C505.316 17.9573 504.681 17.2642 504.409 16.4451C504.137 15.626 502.959 14.1768 501.871 13.3577L499.786 11.7825L497.338 14.3658L494.891 16.9491L493.441 14.6178C492.715 13.3577 492.081 11.7195 492.081 11.0264C492.081 10.3333 491.537 9.76623 490.812 9.76623C490.087 9.76623 489.18 8.88412 488.817 7.68697L488.183 5.67071L487.276 7.24591C486.733 8.12802 485.735 9.82924 484.92 10.9634L483.56 13.1687L481.566 10.0183C480.387 8.31705 479.481 7.43493 479.481 8.06501C479.39 9.13615 477.396 11.0264 476.308 11.0264C476.036 11.0264 475.401 9.89225 474.858 8.44306C473.86 6.04876 473.77 5.92274 472.591 6.99388C471.866 7.68697 471.232 8.69509 471.232 9.38818C471.232 10.3333 470.96 10.3963 469.963 9.82924C468.965 9.26217 468.603 9.32517 468.15 10.1443C467.787 10.7113 466.971 11.0264 466.246 10.7744C465.339 10.5223 464.886 10.8374 464.886 11.6565C464.886 12.3496 464.524 12.9166 463.98 12.9166C463.526 12.9166 463.073 12.4756 463.073 11.9715C463.073 10.6483 461.623 10.7744 457.997 12.3496C455.096 13.5467 454.915 13.6097 454.915 12.4756C454.915 11.8455 454.099 10.6483 453.102 9.76623C451.651 8.44306 451.289 8.38005 451.289 9.32517C451.289 9.95525 450.926 10.2703 450.382 10.0813C449.929 9.89225 449.476 9.13615 449.476 8.44306C449.476 7.11989 447.663 6.74185 447.663 8.00201C447.663 8.44306 447.028 9.32517 446.303 9.95525C445.125 11.0894 445.034 11.0264 443.584 9.13615C441.952 6.93087 441.136 7.05689 440.592 9.64021C440.23 11.9085 438.779 12.7906 438.054 11.2784C436.966 9.13615 435.697 8.31705 434.881 9.19916C434.338 9.82924 433.884 9.82924 432.796 9.19916C431.618 8.50607 431.165 8.56908 429.986 9.38818C429.171 9.95525 427.992 10.3963 427.267 10.3963C426.542 10.3963 425.817 11.4674 425.454 12.9796C424.819 15.626 422.916 16.067 422.463 13.6727C422.281 12.9796 421.556 12.0345 420.831 11.6565C420.106 11.2154 419.562 10.1443 419.562 9.19916L419.471 7.56095L416.842 9.76623C415.301 10.9634 413.851 12.7276 413.579 13.7357C412.763 16.067 411.585 16.4451 410.588 14.6178C410.134 13.7987 409.137 12.7276 408.503 12.2235C407.777 11.7195 406.78 10.7744 406.146 10.0813C405.33 9.13615 405.149 9.07314 405.058 9.82924C405.058 10.3333 404.061 11.4044 402.792 12.1605C401.523 12.9166 400.525 13.9248 400.525 14.4288C400.525 14.8699 399.982 15.626 399.256 16.004C398.259 16.5711 397.897 16.3191 397.534 14.8069C397.171 13.7357 396.446 12.9796 395.902 13.0426C395.268 13.1687 394.543 12.6646 394.271 11.9715C393.999 11.2784 392.911 10.7113 392.004 10.7113C391.098 10.7113 389.829 10.1443 389.285 9.45119C388.741 8.7581 388.197 8.06501 388.107 7.939C387.925 7.81298 387.019 8.19103 385.931 8.82111C384.118 10.0183 383.302 9.76623 382.124 7.56095C381.489 6.55282 378.045 9.70322 377.41 11.7825C376.957 13.1687 376.413 13.6097 375.144 13.3577C374.056 13.1687 373.15 13.6097 372.424 14.6809L371.337 16.3191L369.886 14.6178C368.254 12.7906 366.532 12.4126 365.807 13.6727C365.444 14.2398 365.263 14.1768 365.263 13.5467C365.172 13.0426 364.719 12.1605 364.266 11.6565C363.45 10.8374 363.087 10.9634 361.546 12.2865C360.549 13.1687 359.733 13.5467 359.824 13.2317C360.187 11.6565 359.643 9.76623 358.918 9.76623C358.464 9.76623 357.83 10.6483 357.467 11.7195C357.014 12.9796 356.47 13.5467 355.564 13.2947C354.838 13.1057 354.295 13.1687 354.204 13.4207C354.023 14.6178 353.297 17.0752 352.935 17.8313C352.572 18.4613 351.938 18.4613 349.853 17.7052C348.402 17.1382 347.043 16.3821 346.861 16.004C346.589 15.4369 346.045 15.4369 344.595 15.941C343.145 16.5081 342.601 16.5081 342.238 15.878C341.966 15.4369 341.422 15.752 340.879 16.6971C340.063 18.2093 339.972 18.2093 339.337 17.0121C337.434 13.1687 337.796 13.2317 332.72 16.4451C329.094 18.7764 328.006 19.9105 327.916 21.3597C327.825 23.88 323.202 34.0243 322.114 34.0243C321.661 34.0243 321.026 33.2052 320.664 32.2601C320.301 31.252 319.395 30.1178 318.67 29.7398C317.944 29.2987 317.038 27.9125 316.766 26.6524C316.403 25.3922 315.769 24.2581 315.316 24.1321C314.862 24.006 314.228 22.4938 313.865 20.7926C313.231 16.6971 311.599 13.7357 310.783 14.9329C310.42 15.3739 309.877 16.8231 309.514 18.0833C308.879 20.4776 307.157 21.4227 307.157 19.4065C307.157 18.6504 306.885 18.5243 306.16 19.0284C304.619 20.0995 301.899 19.2804 301.265 17.4532L300.721 15.815L299.089 17.5162L297.548 19.1544L295.917 17.8313L294.194 16.4451L292.109 18.2093C290.931 19.1544 289.934 20.4776 289.934 21.1077C289.934 21.7378 289.571 22.4938 289.027 22.6829C288.483 22.8719 288.121 22.4308 288.121 21.6747C288.121 20.9186 287.305 19.4065 286.399 18.3353C285.401 17.2642 284.404 15.3109 284.042 13.9878C283.407 11.9085 283.226 11.7195 282.229 12.7276C281.232 13.6727 281.05 13.6097 280.416 11.7825C280.144 10.7113 279.509 9.64021 279.056 9.45119C278.149 9.07314 276.337 13.0426 276.337 15.563C276.337 17.8313 274.886 18.3353 274.161 16.3821C273.436 14.4918 271.804 14.3028 271.804 16.067C271.804 17.6422 270.263 17.7052 269.719 16.193C269.447 15.2479 269.266 15.2479 268.722 16.3821C266.546 20.3516 266.728 20.3516 264.824 17.2642C263.102 14.5548 260.926 12.7906 260.926 13.9878C260.745 17.5792 258.841 23.943 257.482 25.4552L255.759 27.4085L253.856 25.7073C252.768 24.7621 251.861 23.313 251.861 22.5569C251.861 21.7378 251.227 20.9186 250.502 20.7296C249.776 20.4776 249.142 19.9105 249.142 19.3434C249.142 18.7764 248.417 17.7682 247.51 17.0752C246.604 16.3191 245.335 14.5548 244.7 13.0426C244.065 11.4674 243.159 10.3963 242.524 10.5853C241.527 10.7744 238.536 13.5467 236.542 15.941C235.635 17.0752 233.006 16.2561 231.556 14.2398C230.287 12.6016 230.287 12.6016 228.655 16.6341C227.477 19.5325 226.842 20.2886 226.389 19.4695C225.845 18.3983 225.664 18.4613 224.848 19.9735C224.304 20.8556 223.488 21.8008 223.035 21.9898C222.672 22.1788 221.766 23.439 221.041 24.8251C220.406 26.2743 219.5 27.4085 219.137 27.4085C217.959 27.4085 216.78 25.3922 216.236 22.3678C215.964 20.7926 214.695 18.1463 213.517 16.3821L211.341 13.2947L209.982 15.1219C208.622 16.8861 208.622 16.8861 207.534 15.563C206.265 13.9878 204.543 13.7987 202.639 15.1219C201.914 15.626 201.098 15.878 200.826 15.689C200.554 15.5 200.101 16.193 199.738 17.2642C199.013 19.4695 197.563 19.8475 196.837 17.9573C196.203 16.2561 194.752 16.3821 194.752 18.0833C194.752 19.0284 194.481 19.2804 194.027 18.7764C193.574 18.2723 192.849 18.2093 192.033 18.5873C191.217 18.9024 190.311 18.9024 189.676 18.5243C188.951 18.1463 187.863 18.6504 186.232 20.1625C183.603 22.5569 181.427 22.9979 180.521 21.2967C179.977 20.3516 179.886 20.3516 179.252 21.4857C178.526 22.6199 178.526 22.6199 177.982 21.4227C177.439 20.1625 172.453 18.1463 170.821 18.4613C169.643 18.7134 165.745 16.004 165.745 14.9959C165.745 14.4918 165.292 13.4837 164.748 12.7906C163.751 11.4674 163.66 11.4674 162.572 13.2947C161.575 14.8699 161.303 14.9329 160.759 13.9878C160.397 13.4207 159.581 12.9166 158.946 12.9166C158.312 12.9166 157.496 11.9715 157.133 10.8374C156.045 7.24591 155.683 6.61583 154.323 6.61583C153.598 6.61583 153.054 7.05689 153.054 7.56095C153.054 8.06501 152.51 8.31705 151.785 8.12802C150.969 7.939 150.244 8.44306 149.7 9.57721L148.794 11.3414L148.159 9.26217C147.524 7.30892 147.343 7.24591 146.165 8.31705C144.986 9.38818 144.896 9.38818 144.352 8.00201C143.808 6.61583 143.717 6.61583 141.995 7.68697C140.091 8.88412 137.644 9.32517 137.644 8.44306C137.644 8.12802 137.281 7.87599 136.737 7.87599C136.284 7.87599 135.831 8.44306 135.831 9.07314C135.831 11.2154 134.29 11.1524 133.021 8.94713C132.023 7.11989 131.842 7.05689 131.57 8.31705C131.208 9.64021 129.485 10.3963 129.485 9.26217C129.485 8.94713 128.941 8.25404 128.307 7.62396C127.128 6.55282 126.947 6.61583 125.043 8.7581C123.321 10.5853 122.687 10.9004 121.689 10.3333C120.964 9.95525 120.42 9.26217 120.42 8.88412C120.42 8.50607 119.605 7.49794 118.698 6.67884L117.066 5.16665L115.979 7.43493C115.344 8.69509 114.075 9.89225 113.168 10.0813C112.262 10.2703 111.174 11.0264 110.902 11.7195C109.996 13.5467 108.636 13.1687 108.636 10.9634C108.636 8.25404 107.186 9.26217 106.46 12.4126C105.282 17.9573 100.931 23.313 98.2114 22.6199C97.4862 22.4308 96.761 23.313 96.0358 25.2032L94.9481 28.1016L91.5941 26.7154C89.7811 25.8963 87.8774 24.8882 87.5149 24.4471C87.1523 24.006 86.2458 23.628 85.5206 23.628C84.7954 23.628 84.0702 22.4938 83.7076 20.4146C83.345 18.6504 82.5292 17.0752 81.8946 16.8861C81.1694 16.7601 80.1723 15.689 79.6284 14.6178C78.8126 12.9796 78.45 12.7906 77.8154 13.5467C77.3622 14.0508 76.9089 14.9329 76.9089 15.5C76.9089 16.067 76.2744 17.3902 75.5492 18.3353C74.824 19.3434 74.1895 20.6036 74.1895 21.1077C74.0988 21.6117 73.5549 22.7459 72.9204 23.565L71.7419 25.0772L70.7448 23.1239C70.2009 22.0528 70.0196 21.1077 70.2009 20.9186C70.4729 20.7296 69.2944 19.8475 67.5721 18.9654C65.5778 17.8943 64.2181 16.5081 63.8555 15.2479L63.221 13.2317L61.8612 14.9959C60.8641 16.3191 60.0482 16.6341 58.6885 16.3821C57.3288 16.067 56.9662 16.2561 56.9662 17.4532C56.8755 18.7134 53.6122 22.3048 53.0683 21.6747C52.9776 21.5487 51.8898 20.0995 50.8021 18.4613C49.6236 16.8231 48.3545 15.3109 47.9013 15.1219C47.448 14.9329 46.5416 16.067 45.9977 17.6422C45.3631 19.2804 44.366 20.7296 43.6408 20.9186C42.9156 21.1077 41.7372 22.3678 40.9213 23.691C40.1961 25.0772 39.2896 26.1483 38.927 26.1483C37.9299 26.1483 34.9385 21.3597 29.7715 11.5305C28.6837 9.38818 27.9585 8.7581 27.324 9.19916C26.5988 9.70322 25.8736 9.45119 24.7858 8.25404C23.0635 6.48981 21.6131 6.11177 21.6131 7.49794C21.6131 7.939 20.616 9.01013 19.4375 9.82924C18.2591 10.6483 17.0807 11.9085 16.8994 12.6016C16.6274 13.4207 15.9022 12.4756 14.8144 9.89225C13.908 7.74997 12.9108 5.85973 12.6389 5.67071C11.4604 5.22965 7.56253 6.93087 7.56253 7.87599C7.56253 8.38005 6.56539 9.19916 5.29631 9.70322L3.12074 10.5853L5.20566 11.1524C6.92799 11.5305 7.10929 11.8455 6.29345 12.5386C5.38696 13.2317 5.65891 13.6727 7.29059 14.4288C8.37837 14.9959 10.1913 15.4369 11.1885 15.4369C12.5482 15.4369 12.7295 15.563 11.7324 16.004C10.7352 16.4451 10.8259 16.6971 12.095 17.2012C14.1799 17.9573 13.3641 19.6585 10.5539 20.4776C9.37551 20.7926 7.47188 21.6117 6.29345 22.2418C3.84593 23.628 3.93658 23.628 10.5539 24.5731C13.0921 24.9512 19.8001 28.6056 18.1685 28.7316C17.8059 28.7316 18.4404 28.9837 19.6188 29.2987C20.8879 29.6768 21.6131 30.3698 21.4318 30.9999C21.2505 31.819 21.7944 32.1971 23.4261 32.3231C28.5024 32.7642 28.0492 33.2682 21.8851 34.3394C12.6389 35.9146 11.2791 36.7967 15.7209 38.2458C17.1713 38.6869 17.8965 39.317 17.5339 39.8841C17.262 40.3881 17.8059 40.8922 18.8936 41.0812C19.8908 41.2702 20.5253 41.6483 20.2534 41.9003C19.9814 42.1523 20.5253 42.5934 21.3412 42.7824C22.7009 43.1605 22.7009 43.3495 21.6131 43.7906C20.616 44.2316 20.8879 44.4206 22.7009 44.7357C27.1427 45.4918 26.4175 46.8149 21.0692 47.634C18.4404 48.0751 16.1742 48.5162 16.1742 48.6422C16.1742 48.8312 16.8087 49.3353 17.5339 49.8393C19.3469 51.1625 19.2562 51.9816 17.262 51.9816C16.3555 51.9816 14.4518 52.8637 13.0015 53.8718C10.5539 55.6991 10.4633 55.8251 12.095 56.5812C13.908 57.5263 13.4547 57.9043 9.73811 58.5344C7.10929 58.9125 5.38696 60.9287 7.19994 61.3698C9.28486 61.8108 12.0043 64.2051 10.8259 64.4572C10.1007 64.6462 10.0101 64.9612 10.7352 65.4653C11.3698 66.0954 10.7352 66.5994 8.01578 67.4186C4.20852 68.6157 4.48047 69.6238 8.74097 69.6238C11.1885 69.6238 11.3698 70.632 8.92227 71.199C6.56539 71.7031 6.56539 73.4043 8.92227 73.8454C10.282 74.0974 10.4633 74.4124 9.82875 75.2946C9.37551 75.8616 9.19421 76.5547 9.55681 76.7437C9.82875 76.9328 9.37551 77.6258 8.46902 78.1929C6.92799 79.2641 7.01864 79.3901 9.73811 81.0913C11.2791 82.0364 13.1828 82.8555 13.908 82.8555C15.9022 82.8555 15.5396 84.8088 13.4547 85.1868C12.4576 85.3758 11.6417 85.7539 11.6417 86.0059C11.6417 86.699 15.9022 88.5262 17.5339 88.5262C18.2591 88.5262 18.8936 88.7153 18.8936 88.9673C18.8936 89.5344 10.4633 92.3067 8.92227 92.3067C7.29059 92.3067 5.38696 93.9449 6.11215 94.701C6.3841 95.0791 7.92513 95.5831 9.37551 95.8352C10.8259 96.0872 12.6389 96.6543 13.2734 97.0953C13.908 97.5994 15.9929 98.2295 17.8059 98.6075C19.7095 98.9226 21.9757 99.6156 22.9728 100.12C24.6952 101.002 24.6952 101.065 22.157 101.758C19.6188 102.388 19.5282 102.451 21.2505 103.27C22.2477 103.774 23.97 104.278 25.0578 104.404C27.9585 104.656 27.5053 105.727 24.0606 106.547C18.4404 107.933 12.095 110.138 13.1828 110.39C13.8173 110.579 12.6389 111.713 10.5539 113.162C8.46902 114.549 7.01864 115.746 7.19994 115.809C7.38123 115.935 9.28486 116.376 11.3698 116.88C15.5396 117.762 15.7209 118.392 11.9137 118.959C9.73811 119.274 9.37551 119.589 9.37551 121.542C9.37551 123.307 9.73811 123.811 11.0072 123.811C13.7267 123.811 12.1856 125.26 8.83162 125.89C4.93371 126.583 4.75242 126.709 6.11215 127.843C7.47188 128.914 6.74669 130.112 4.75242 130.112C4.02723 130.112 3.48333 130.364 3.48333 130.679C3.48333 130.994 3.21139 131.687 2.93944 132.254C2.57684 133.01 2.93944 133.262 4.29917 133.262C5.38696 133.262 6.2028 133.64 6.2028 134.144C6.2028 134.648 6.74669 135.215 7.38123 135.341C8.19707 135.593 8.10643 135.845 7.10929 136.349C6.0215 136.853 6.11215 137.042 7.56253 137.357C8.55967 137.609 10.282 138.114 11.4604 138.492C13.2734 139.122 13.3641 139.248 12.0043 140.256C10.5539 141.327 10.7352 141.453 14.2705 141.831C17.0807 142.146 17.9872 142.524 17.6246 143.154C17.262 143.721 17.7152 144.225 18.8936 144.414C21.1599 144.855 20.344 145.864 17.7152 145.927C15.177 145.99 23.0635 147.754 25.9643 147.754C28.5931 147.754 28.5931 149.392 25.9643 150.022C24.7858 150.274 22.9728 150.904 21.7944 151.408L19.7095 152.353L22.0664 153.424L24.5139 154.496L21.9757 154.937L19.5282 155.378L23.0635 156.89L26.5988 158.339L24.0606 158.78C21.1599 159.284 21.0692 159.536 23.1541 161.111C24.5139 162.183 24.5139 162.246 23.1541 162.246C22.2477 162.246 21.6131 162.498 21.6131 162.876C21.6131 163.191 22.2477 163.506 22.9728 163.506C23.698 163.506 24.3326 163.758 24.3326 164.136C24.3326 164.451 23.1541 164.766 21.7038 164.766C18.531 164.766 17.3526 165.711 19.4375 166.53C20.7066 167.034 20.7066 167.16 19.4375 168.105C18.0778 169.05 18.0778 169.176 19.7095 169.807C20.7066 170.122 22.0664 170.437 22.8822 170.437C23.6074 170.437 25.3297 170.752 26.6894 171.13L29.2276 171.76L24.7858 173.209L20.2534 174.658L23.698 175.099C27.5959 175.603 28.1398 177.052 24.7858 178.124C22.0664 179.006 23.3354 179.888 27.324 179.888C28.6837 179.888 29.7715 180.14 29.7715 180.518C29.7715 180.833 28.7744 181.148 27.5959 181.148C24.9671 181.148 23.1541 182.534 23.97 183.92C24.3326 184.55 24.0606 184.928 23.3354 184.928C22.7009 184.928 20.4347 185.37 18.4404 185.937C15.3583 186.756 14.8144 187.134 14.9051 188.583C14.9051 189.969 15.449 190.347 17.6246 190.473C18.9843 190.599 21.1599 191.355 22.2477 192.174L24.3326 193.561L20.0721 194.38C14.6331 195.388 13.2734 196.207 15.9929 196.648C18.3497 197.089 18.6217 197.845 16.5368 198.412C14.8144 198.853 15.7209 200.05 17.8059 200.05C18.7123 200.05 19.8908 200.617 20.5253 201.311C21.1599 202.004 22.2477 202.571 22.9728 202.571C25.3297 202.571 34.304 205.406 34.032 206.036C33.8507 206.351 31.4938 206.855 28.7744 207.044C26.0549 207.296 22.2477 208.052 20.2534 208.746L16.6274 210.006L20.5253 210.699C22.6102 211.14 24.1513 211.707 23.8793 211.959C23.6074 212.274 24.5139 212.715 25.8736 212.967C28.865 213.471 27.4146 214.29 22.3383 214.857C20.4347 215.109 18.8936 215.55 18.8936 215.865C18.8936 216.18 19.2562 216.432 19.6188 216.432C21.1599 216.432 20.4347 219.016 18.7123 219.835C17.0807 220.654 16.99 220.969 17.9872 221.788C18.6217 222.292 19.6188 222.733 20.344 222.733C22.7915 222.733 25.9643 224.182 25.511 225.002C25.2391 225.506 25.511 225.884 26.1456 225.884C26.6894 225.884 26.8707 226.136 26.5988 226.514C26.3269 226.829 25.1484 227.144 24.0606 227.144C22.9728 227.144 21.5225 227.396 20.7973 227.711C19.8001 228.152 20.2534 228.467 22.6102 228.908L25.6923 229.475L19.9814 230.294C13.8173 231.176 13.7267 231.743 19.3469 233.067L22.7009 233.886L18.7123 235.461C16.6274 236.343 14.1799 237.162 13.3641 237.414C11.3698 237.855 10.5539 241.006 12.1856 241.447C13.908 241.888 13.8173 242.896 12.0043 242.896C11.1885 242.896 9.55681 243.463 8.37837 244.093C6.2028 245.29 6.2028 245.353 7.83448 245.983C9.28486 246.487 19.3469 247.937 21.8851 247.937C23.8793 247.937 21.2505 249.134 18.4404 249.449C16.6274 249.701 15.449 250.079 15.6303 250.394C15.9022 250.646 14.5425 251.213 12.7295 251.654C6.29345 253.229 2.66749 254.489 3.12074 254.993C3.39268 255.245 4.38982 255.497 5.29631 255.497C6.29345 255.497 7.92513 256.002 8.83162 256.569C10.5539 257.514 10.5539 257.64 9.10356 258.459C7.65318 259.215 7.74383 259.404 10.1913 260.916C12.095 262.05 12.5482 262.68 11.823 263.184C11.0978 263.689 11.3698 264.319 13.0921 265.327C14.9957 266.587 15.2677 267.28 15.177 270.304C14.9957 273.203 14.6331 273.896 12.8202 274.715C11.6417 275.282 10.9165 275.975 11.1885 276.29C11.5511 276.668 11.2791 276.92 10.8259 276.92C8.92227 276.92 9.82875 278.18 12.1856 278.936L14.4518 279.693L11.5511 280.764L8.55967 281.835L13.7267 283.536C18.803 285.174 19.9814 285.993 17.8059 286.497C17.262 286.623 16.7181 287.569 16.6274 288.514C16.5368 290.404 16.8994 290.593 24.0606 292.105C27.6866 292.798 27.7772 292.924 25.9643 293.554C22.5196 294.751 23.0635 295.697 28.0492 296.705C30.678 297.272 33.4881 297.713 34.2133 297.776C35.0291 297.776 37.1141 298.28 38.927 298.847C41.8278 299.792 42.1904 300.107 41.4652 301.304C41.012 302.249 39.7429 302.816 37.2954 303.069C35.3917 303.321 31.3125 304.014 28.2305 304.707C25.1484 305.337 21.8851 305.904 20.9786 305.904C20.0721 305.967 17.7152 306.912 15.8116 308.046L12.2763 310.125L16.99 311.26C19.5282 311.827 21.6131 312.52 21.6131 312.709C21.6131 312.961 19.8908 313.717 17.8965 314.41C15.8116 315.103 14.1799 315.922 14.1799 316.3C14.1799 316.615 16.99 317.434 20.344 318.001C23.698 318.631 26.8707 319.388 27.4146 319.766C27.8679 320.081 28.9557 320.396 29.7715 320.396C31.2219 320.396 35.0291 322.727 34.2133 323.105C34.032 323.231 31.8564 323.735 29.3183 324.302C24.3326 325.373 22.5196 327.327 26.4175 327.327C28.865 327.327 31.1312 328.776 30.2248 329.847C29.9528 330.162 28.5931 330.477 27.2333 330.477C24.4232 330.477 20.9786 331.674 23.4261 331.8C24.1513 331.8 23.4261 332.241 21.8851 332.745C18.6217 333.69 18.2591 334.32 20.1627 335.455C21.0692 335.959 21.2505 336.778 20.7066 338.353C20.344 339.55 20.2534 340.558 20.616 340.558C20.8879 340.621 20.1627 341.188 18.9843 341.818C17.8059 342.512 17.3526 343.079 17.8965 343.079C18.4404 343.079 18.8936 343.457 18.8936 343.961C18.8936 344.465 20.1627 345.032 21.7038 345.284C23.2448 345.536 24.6952 346.103 24.9671 346.607C25.2391 347.048 26.7801 347.615 28.5024 347.867C31.4938 348.245 32.8536 349.379 30.3154 349.379C29.6809 349.379 28.5931 349.757 28.0492 350.262C27.4146 350.766 25.6017 351.333 23.97 351.522C22.2477 351.774 20.4347 352.341 19.8001 352.845C19.1656 353.349 17.0807 354.105 15.0864 354.546C12.1856 355.113 11.7324 355.428 12.7295 355.932C14.0893 356.688 15.6303 358.831 15.449 359.587C15.3583 359.902 15.7209 360.091 16.3555 360.091C16.8994 360.091 16.7181 360.595 15.8116 361.288C14.1799 362.485 14.2705 362.548 17.5339 363.493C19.4375 364.06 21.2505 364.501 21.7038 364.501C22.157 364.501 22.3383 365.32 22.0664 366.392C21.6131 368.03 21.8851 368.282 24.0606 368.66C26.5081 369.101 26.3269 369.227 21.1599 370.928C18.1685 371.873 16.2648 372.692 16.99 372.692C17.6246 372.692 17.9872 373.07 17.7152 373.511C17.4433 373.953 17.9872 374.709 18.9843 375.087C19.8908 375.528 20.4347 376.221 20.1627 376.725C19.8908 377.292 20.344 377.733 21.3412 377.859C22.3383 378.048 21.7038 378.363 19.6188 378.615C17.7152 378.93 16.1742 379.308 16.1742 379.56C16.1742 379.812 14.5425 380.505 12.5482 381.135C8.46902 382.396 8.46902 383.089 12.8202 383.719C19.1656 384.601 19.4375 384.727 16.3555 385.672C14.7238 386.113 13.4547 386.806 13.4547 387.184C13.4547 387.499 12.8202 387.814 12.095 387.814C11.3698 387.814 10.7352 387.94 10.7352 388.129C10.7352 388.444 13.0921 390.524 15.3583 392.225C16.6274 393.17 16.6274 393.422 14.4518 394.871C13.1828 395.753 11.3698 396.635 10.5539 396.824C8.83162 397.265 9.37551 399.786 11.1885 399.786C11.823 399.786 12.8202 400.164 13.3641 400.668C13.9986 401.172 15.7209 401.802 17.1713 401.991C20.8879 402.558 20.4347 403.251 15.5396 404.511C10.282 405.835 8.74097 406.717 11.4604 406.717C12.5482 406.717 13.4547 406.969 13.4547 407.347C13.4547 407.662 12.5482 407.977 11.4604 407.977C9.82875 407.977 9.82875 408.859 11.4604 408.985C18.0778 409.363 21.6131 410.119 22.0664 411.19C22.4289 411.82 23.0635 412.387 23.5167 412.387C25.0578 412.387 24.3326 413.963 22.0664 415.664L19.8001 417.428L22.2477 417.743C23.698 417.995 26.5988 418.751 28.865 419.444L32.9442 420.83L27.052 421.713L21.1599 422.658L24.0606 423.477C28.2305 424.737 28.5931 425.619 24.8765 425.619C19.8908 425.619 20.9786 426.753 27.052 427.95C33.0349 429.085 33.7601 429.652 30.0435 430.219C28.5931 430.471 26.9614 430.912 26.2362 431.227C25.1484 431.731 25.1484 431.983 26.4175 432.802C27.1427 433.369 28.5024 433.81 29.3183 433.81C30.1341 433.81 30.5873 434.062 30.3154 434.377C29.6809 435.07 32.7629 435.7 37.0234 435.7C38.7457 435.7 40.8307 436.015 41.5559 436.33C42.553 436.771 42.0091 436.961 39.3803 436.961C34.9385 436.961 25.6923 438.662 22.7915 439.922C21.5225 440.489 19.3469 441.749 17.9872 442.694L15.449 444.458L18.7123 445.215C21.7944 445.908 21.8851 446.034 19.9814 446.475C18.8936 446.79 17.9872 447.294 17.9872 447.609C17.9872 447.987 16.4461 448.428 14.6331 448.617C8.55967 449.31 8.46902 449.499 12.8202 451.767C15.0864 452.965 17.5339 453.973 18.1685 453.973C20.7066 453.973 15.177 455.926 10.5539 456.556L5.74955 457.312L10.1007 458.635C14.3612 459.958 14.4518 460.021 12.3669 460.715C11.1885 461.093 8.28772 461.849 5.74955 462.353C2.57684 462.983 1.67035 463.424 2.66749 463.739C3.66463 463.991 4.02723 464.621 3.75528 465.377C3.48333 466.133 3.75528 466.574 4.48047 466.574C5.20566 466.637 4.38982 467.015 2.75814 467.519C-1.04911 468.654 -0.958463 469.599 3.30203 470.733C5.11501 471.3 8.65032 472.371 11.0978 473.19L15.5396 474.702L13.0921 475.395C11.7324 475.71 10.1913 476.025 9.64746 476.025C7.65318 476.025 11.0072 477.853 14.1799 478.546C15.9929 478.987 18.8936 479.743 20.616 480.247C23.0635 481.003 31.9471 482.2 36.3889 482.326C37.8393 482.326 36.9328 483.46 35.1198 483.775C34.032 483.964 33.4881 484.406 33.7601 484.784C34.6665 485.792 30.5873 487.367 27.052 487.367C22.7915 487.367 20.616 488.312 23.6074 488.816C25.783 489.194 28.5024 492.093 27.2333 492.597C26.8707 492.786 25.0578 493.038 23.2448 493.29C19.3469 493.794 14.8144 495.306 15.9022 495.747C16.2648 495.873 18.9843 496.251 21.7944 496.44C24.6952 496.692 27.052 497.133 27.052 497.448C27.052 497.763 28.1398 498.267 29.5902 498.582C31.4938 499.086 31.6751 499.275 30.2248 499.275C27.8679 499.338 24.3326 501.04 24.3326 502.111C24.3326 502.867 27.9585 503.938 33.1255 504.694C35.845 505.072 37.386 506.269 35.2104 506.269C33.1255 506.269 34.6665 507.34 38.927 508.79C42.8249 510.05 43.2782 510.428 42.0998 511.058C40.1055 512.066 40.2868 513.2 42.4624 513.2C43.4595 513.2 44.2753 513.452 44.2753 513.83C44.2753 514.145 43.0969 514.46 41.6465 514.46C40.1961 514.46 38.3832 514.838 37.7486 515.279C37.1141 515.784 35.4824 516.351 34.1227 516.54C32.4003 516.855 31.8564 517.296 32.219 518.178C32.491 518.934 32.0377 519.438 30.7686 519.69C28.5024 520.068 28.2305 522.021 30.4967 522.021C31.3125 522.021 33.0349 522.588 34.304 523.281C35.573 523.975 37.2954 524.542 38.2925 524.542C39.6522 524.542 39.7429 524.731 38.927 525.424C38.1112 526.117 38.1112 526.369 39.0177 526.621C39.7429 526.873 39.6522 526.999 38.6551 526.999C36.3889 527.062 36.6608 528.133 39.0177 528.574C42.3717 529.141 39.7429 530.212 32.5816 531.157C28.865 531.662 25.3297 532.544 24.2419 533.3L22.3383 534.497L24.2419 535.253C26.5988 536.072 25.9643 537.143 23.1541 537.143C21.3412 537.206 21.3412 537.269 22.6102 537.962C23.97 538.655 23.97 538.907 22.8822 539.979C22.157 540.672 21.7944 541.869 22.0664 542.625C22.3383 543.507 22.157 544.074 21.5225 544.074C20.9786 544.074 21.0692 544.389 21.7944 545.019C24.7858 547.351 24.9671 547.603 23.8793 548.296C23.3354 548.674 21.9757 549.178 20.8879 549.367C18.531 549.934 18.4404 550.879 20.344 553.777C21.6131 555.605 22.5196 556.046 26.0549 556.487L30.2248 556.991L25.9643 558.44C23.6074 559.196 20.7066 559.826 19.6188 559.826C18.4404 559.826 16.8087 560.267 15.9022 560.771C14.2705 561.59 14.2705 561.653 15.9022 562.22C16.8087 562.535 19.0749 563.166 20.9786 563.607C23.6074 564.174 24.1513 564.552 23.4261 565.182C22.7009 565.812 23.3354 566.253 26.3269 567.072C32.1284 568.647 32.5816 569.025 31.0406 571.042C29.8622 572.617 29.8622 572.869 32.0377 574.192L34.3946 575.578L32.0377 576.208C30.7686 576.586 29.2276 576.838 28.7744 576.838C26.3269 576.838 29.3183 577.972 32.6723 578.413C36.2076 578.792 36.3889 578.918 34.4853 579.422C32.3097 579.989 32.491 581.249 34.8478 581.249C35.573 581.249 36.1169 581.501 36.1169 581.816C36.1169 582.698 27.4146 584.336 19.1656 585.029C11.5511 585.722 8.01578 586.92 13.636 586.92C15.449 586.92 17.1713 587.172 17.4433 587.487C17.7152 587.802 19.8908 588.369 22.2477 588.873C25.783 589.503 26.1456 589.692 24.3326 589.881C19.2562 590.385 18.0778 590.7 18.531 591.582C18.8936 592.149 17.8965 592.527 15.2677 592.842C9.28486 593.472 5.38696 595.741 10.1913 595.741C13.1828 595.741 13.9986 596.812 12.1856 598.198C10.7352 599.269 10.7352 599.395 12.095 599.773C12.9108 599.962 14.2705 600.151 15.177 600.151C15.9929 600.151 17.1713 600.466 17.7152 600.844C18.9843 601.726 18.1685 603.932 16.5368 603.932C14.8144 603.932 14.9051 605.192 16.8087 606.137C18.0778 606.83 17.8965 607.019 15.449 607.775C11.6417 608.972 11.823 609.854 16.2648 611.367L19.8908 612.627L17.1713 613.068C15.177 613.383 14.3612 613.824 14.3612 614.706C14.3612 615.336 13.9986 615.903 13.4547 615.903C13.0015 615.903 13.636 616.596 14.9051 617.478C16.1742 618.361 17.5339 619.054 17.9872 619.054C18.4404 619.054 18.6217 619.432 18.4404 619.873C18.1685 620.314 19.1656 621.007 20.7973 621.511C24.0606 622.519 23.1541 623.149 17.8059 623.779C15.9022 624.031 14.1799 624.472 13.8173 624.787C13.1828 625.543 18.8936 627.245 21.9757 627.245C24.8765 627.245 25.783 628.316 23.4261 628.82C22.4289 629.009 21.1599 629.765 20.7066 630.395C20.2534 631.025 18.8936 631.718 17.8059 631.844L15.7209 632.096L17.7152 632.6C18.7123 632.852 19.8001 633.545 20.0721 634.176C20.344 634.869 22.3383 635.688 25.6923 636.444C30.678 637.515 30.8593 637.578 28.5931 638.145C27.2333 638.46 26.1456 638.901 26.1456 639.216C26.1456 639.531 24.4232 639.909 22.3383 640.161C16.8087 640.791 16.4461 641.169 19.8908 642.178L22.9728 643.123L20.2534 643.942C18.803 644.383 17.9872 644.824 18.4404 644.887C18.9843 644.887 18.531 645.328 17.6246 645.832C15.9022 646.714 15.9022 646.777 17.5339 646.777C18.9843 646.777 18.8936 647.029 16.6274 648.667C15.177 649.676 13.2734 650.684 12.3669 650.936C10.8259 651.251 10.8259 651.377 12.7295 652.385L14.7238 653.519L11.3698 654.401C7.56253 655.346 7.01864 656.228 10.1007 656.228C12.6389 656.228 16.7181 658.056 14.2705 658.119C13.4547 658.119 12.5482 658.497 12.2763 659.001C11.823 659.694 7.38123 660.639 3.30203 660.891C1.12646 661.08 2.03295 661.899 4.75242 662.214C7.74383 662.655 14.3612 665.869 14.3612 666.94C14.3612 667.255 12.6389 667.633 10.5539 667.885C6.29345 668.389 4.84307 669.271 6.3841 670.531C7.10929 671.161 6.92799 671.35 5.8402 671.35C4.93371 671.35 4.48047 671.602 4.84307 671.98C5.11501 672.295 4.29917 673.051 3.03009 673.619C1.761 674.186 0.763865 674.816 0.763865 675.068C0.763865 675.257 3.39268 676.013 6.65604 676.643C10.1007 677.336 12.4576 678.155 12.3669 678.596C12.1856 678.974 13.2734 680.045 14.8144 680.927L17.4433 682.566L13.636 683.007C10.7352 683.322 9.82875 683.7 9.82875 684.645C9.82875 685.275 9.19421 685.842 8.46902 685.842C6.11215 685.842 7.01864 686.976 9.9194 687.669C11.4604 688.047 12.4576 688.614 12.095 688.93C11.823 689.308 12.7295 689.749 14.0893 690.001C18.9843 690.757 19.6188 690.946 20.1627 691.828C20.7066 692.962 15.9022 695.608 12.095 696.175C9.01291 696.68 5.29631 698.192 5.29631 699.011C5.29631 699.263 6.92799 700.019 8.92227 700.649C11.1885 701.342 12.1856 701.972 11.5511 702.287C10.8259 702.539 11.1885 702.854 12.4576 703.169C13.5454 703.358 14.1799 703.799 13.908 704.114C13.636 704.366 14.3612 704.745 15.5396 704.997C17.6246 705.312 18.6217 707.517 16.99 708.21C16.0835 708.651 18.2591 710.415 19.7095 710.415C20.2534 710.415 20.7066 710.856 20.7066 711.36C20.7066 711.927 19.8908 712.305 18.4404 712.305C15.9022 712.305 15.3583 713.377 17.8059 713.692C18.6217 713.881 17.6246 714.196 15.5396 714.448C10.8259 715.015 10.5539 715.834 14.8144 716.338C17.1713 716.653 17.9872 717.094 17.8059 717.85C17.6246 718.669 18.6217 718.984 23.0635 719.362C31.5845 719.992 41.7372 722.324 41.1933 723.458C40.9213 723.962 40.6494 724.592 40.6494 724.907C40.6494 725.159 38.7457 725.6 36.3889 725.789C33.9414 726.041 31.3125 726.419 30.4061 726.545C28.7744 726.923 28.7744 726.923 30.4061 727.742C31.9471 728.562 31.8564 728.625 29.4996 729.255C28.0492 729.633 26.5988 729.948 26.2362 729.948C24.9671 729.948 26.9614 735.744 28.5931 737.005C29.9528 738.076 30.2248 738.076 31.6751 737.131C33.1255 736.249 33.3068 736.375 34.3946 739.651C35.0291 741.604 35.7543 743.179 36.1169 743.179C36.9328 743.179 37.9299 739.966 37.9299 737.446C37.9299 736.438 38.2925 735.618 38.7457 735.618C39.199 735.618 39.8335 734.862 40.2868 733.854C40.74 732.531 41.012 732.405 41.2839 733.287C41.6465 734.169 42.0091 734.232 42.9156 733.728C43.8221 733.224 44.6379 733.791 46.4509 736.375C47.72 738.139 48.8078 739.21 48.8984 738.706C49.0797 736.564 49.533 735.114 50.9833 732.153C53.6122 726.671 53.3402 726.986 54.7906 728.31C55.969 729.507 56.0597 729.444 56.6036 727.553C56.8755 726.482 57.782 725.474 58.5979 725.222C59.323 725.033 59.9576 724.97 60.0482 725.033C60.1389 725.159 60.5921 725.852 61.2267 726.545C61.7706 727.301 62.7677 729.129 63.3116 730.578C64.1274 732.594 64.5807 733.098 65.2152 732.405C65.6685 731.901 66.0311 731.019 66.0311 730.389C66.0311 729.822 66.3937 729.318 66.9376 729.318C68.2066 729.318 69.3851 731.145 70.0196 734.043C70.2916 735.429 70.4729 736.627 70.5635 736.69C70.5635 736.816 71.1981 736.879 71.9232 736.879C72.6484 736.879 73.283 737.446 73.283 738.139C73.283 738.832 73.7362 739.399 74.1895 739.399C74.7334 739.399 75.096 738.706 75.096 737.887C75.096 737.005 75.4586 736.123 76.0024 735.933C76.4557 735.744 76.9089 736.123 76.9089 736.816C76.9089 738.454 78.3593 739.021 79.4471 737.761C80.0816 736.942 80.5349 737.257 81.804 739.399C83.345 742.171 84.3421 742.297 84.6141 739.84C84.7954 738.013 87.7868 737.509 87.7868 739.336C87.7868 740.092 88.3307 740.659 89.1465 740.659C89.9624 740.659 90.5063 741.226 90.5063 742.171C90.5063 744.188 92.3192 744.944 92.9538 743.242C93.4977 741.856 95.0387 741.415 95.0387 742.675C95.0387 743.683 98.4834 741.352 99.2086 739.903C99.4805 739.21 100.296 738.832 100.931 739.021C101.656 739.21 102.291 738.832 102.472 738.265C102.744 737.446 103.197 737.635 104.285 739.021L105.735 740.911L107.276 737.194L108.817 733.476L111.446 736.627C112.897 738.328 114.075 740.155 114.166 740.659C114.166 741.163 114.891 742.738 115.797 744.125C117.338 746.456 117.429 746.519 118.064 745.196C118.879 743.557 119.967 743.431 121.146 744.818C121.871 745.763 122.052 745.763 122.505 744.755C122.868 744.188 123.502 743.872 123.956 744.062C124.862 744.44 126.766 741.226 126.766 739.336C126.766 738.643 127.128 738.139 127.582 738.139C128.035 738.139 129.123 736.879 130.029 735.303L131.57 732.468L133.655 734.484C135.559 736.249 136.375 736.123 135.921 734.169C135.74 733.224 137.916 733.791 140.544 735.303C142.72 736.564 143.536 736.753 144.533 736.186C145.983 735.366 145.983 735.366 147.434 737.194C148.34 738.265 148.431 738.328 148.522 737.32C148.522 736.06 148.612 736.06 151.604 736.879C152.873 737.194 153.96 737.887 153.96 738.454C153.96 738.958 154.776 739.399 155.683 739.399C156.771 739.399 157.768 740.029 158.221 741.1C159.037 742.801 159.127 742.801 159.671 740.155C160.397 737.32 162.481 736.564 163.479 738.832C163.932 739.714 164.385 739.903 165.201 739.462C165.835 739.084 167.195 739.021 168.374 739.21C169.643 739.399 170.731 739.273 171.184 738.769C171.637 738.265 172 738.517 172.453 739.588C173.178 741.73 176.351 741.604 177.076 739.462L177.62 737.95L179.07 739.399C180.158 740.47 180.611 740.596 181.246 739.966C181.79 739.336 182.062 739.399 182.515 740.344C182.877 741.037 183.512 742.108 183.965 742.675C184.419 743.305 184.781 744.377 184.781 745.007C184.781 745.7 185.234 746.456 185.688 746.645C186.232 746.834 186.594 746.519 186.594 745.826C186.594 744.062 187.591 743.683 189.404 744.818C190.855 745.7 191.127 745.7 192.305 744.314C193.03 743.557 194.209 741.73 194.843 740.344C196.203 737.509 197.291 736.249 198.469 736.249C198.922 736.249 199.285 736.69 199.285 737.194C199.285 738.58 200.01 738.391 203.455 735.933C205.086 734.736 206.99 733.791 207.534 733.854C208.078 733.98 209.166 732.72 209.891 731.082C211.251 728.184 212.882 727.553 212.882 729.948C212.882 731.712 214.514 732.09 214.877 730.452C215.058 729.381 215.692 729.066 217.233 729.192C218.412 729.318 219.228 729.066 219.228 728.562C219.228 728.12 220.044 726.608 220.95 725.222L222.582 722.702L224.032 725.096C224.848 726.356 226.117 727.616 226.933 727.805C227.658 727.994 228.293 728.877 228.293 729.759C228.293 731.46 229.562 733.413 231.828 735.177C232.644 735.87 233.732 737.698 234.275 739.273C235.182 741.793 235.454 742.045 235.998 740.785C236.814 739.147 238.717 738.958 239.624 740.47C240.168 741.478 240.349 741.478 241.981 740.092C242.887 739.273 243.703 738.895 243.703 739.21C243.703 739.525 244.247 739.84 244.881 739.84C245.607 739.84 247.057 738.202 248.145 736.249C249.776 733.476 250.592 732.657 251.771 732.909C253.221 733.161 255.306 730.641 257.753 725.852C258.297 724.655 258.388 724.655 259.566 725.726C260.382 726.545 261.379 726.797 262.558 726.482C263.918 726.23 264.552 726.482 265.005 727.427C265.277 728.12 266.184 729.129 267 729.633C268.269 730.515 268.541 730.515 269.991 729.633C270.898 729.066 272.076 728.688 272.711 728.814C273.345 728.94 274.252 728.12 274.886 726.986C276.337 724.088 276.971 723.899 277.606 726.293C278.693 730.2 280.234 733.728 280.778 733.728C281.05 733.728 281.957 732.405 282.682 730.704C283.679 728.562 284.495 727.742 285.583 727.805C286.489 727.868 287.214 727.679 287.214 727.364C287.214 727.049 287.849 726.797 288.574 726.797C289.299 726.797 289.934 727.238 289.934 727.742C289.934 728.247 290.478 728.688 291.112 728.688C291.656 728.688 292.925 729.948 293.832 731.46L295.463 734.232L298.183 733.224C299.633 732.594 300.812 731.775 300.812 731.334C300.812 730.641 301.265 730.452 303.803 730.326C304.347 730.263 305.616 729.255 306.432 728.057L307.882 725.852L309.061 727.931C309.786 729.066 310.692 729.885 311.236 729.759C311.69 729.633 313.049 726.608 314.046 722.954L316.041 716.401L317.491 718.795C319.032 721.19 320.301 721.757 320.936 720.371C321.208 719.803 321.842 719.866 322.93 720.686C324.471 721.757 325.106 722.828 325.196 725.033C325.287 726.797 326.647 726.356 328.278 723.962C329.094 722.765 330.182 721.757 330.635 721.757C330.998 721.757 331.632 720.623 331.995 719.236C332.629 716.338 334.352 715.96 336.165 718.291C336.799 719.173 337.887 719.866 338.522 719.866C339.791 719.866 340.063 720.56 341.15 725.096C341.513 726.797 342.329 727.616 343.87 728.057C345.139 728.373 346.227 729.318 346.589 730.515C347.224 732.594 348.856 733.224 348.856 731.397C348.856 730.074 352.663 724.34 353.66 724.277C354.023 724.277 354.295 724.718 354.295 725.222C354.295 725.726 355.292 726.797 356.561 727.553C357.83 728.31 358.827 729.318 358.827 729.759C358.827 730.2 359.371 730.578 360.005 730.578C360.731 730.578 362 732.153 362.997 734.106L364.719 737.635L366.17 735.303L367.711 732.909L368.345 736.186C369.07 739.714 370.158 740.281 371.518 737.824C371.971 736.942 372.787 736.249 373.24 736.249C373.693 736.249 374.6 735.24 375.234 734.043C377.047 730.578 381.399 731.775 381.489 735.744C381.489 737.635 383.302 738.265 383.302 736.375C383.393 735.807 383.937 734.61 384.571 733.791L385.75 732.279L387.019 734.295C388.288 736.249 389.648 736.879 389.648 735.555C389.648 734.043 393.908 739.273 394.543 741.478C395.268 744.062 396.446 744.503 397.353 742.549C397.987 741.163 399.619 740.848 399.619 742.045C399.619 742.612 399.891 742.612 400.435 741.982C401.069 741.289 401.704 741.478 403.608 742.927C404.877 743.936 405.964 745.133 405.964 745.511C405.964 746.834 407.415 746.456 408.593 744.881C409.228 744.062 411.131 743.053 412.854 742.612C414.848 742.108 415.936 741.415 415.936 740.659C415.936 738.454 417.749 738.643 419.29 741.1C420.65 743.179 420.921 743.305 421.193 742.045C421.556 740.533 422.281 740.281 423.732 741.289C424.185 741.604 425.998 741.982 427.72 742.108C430.44 742.36 430.984 742.675 432.253 745.259C434.066 749.165 435.425 750.047 436.241 747.968C436.604 746.897 437.42 746.33 438.598 746.33C439.595 746.33 440.411 746.078 440.411 745.763C440.411 745.448 441.861 744.566 443.674 743.746C446.938 742.36 447.028 742.36 448.297 743.557C449.567 744.692 449.657 744.692 451.833 742.864C453.011 741.793 454.462 741.037 454.915 741.163C456.003 741.352 458.541 739.588 460.535 737.131C461.351 736.123 462.892 735.24 463.798 735.114C464.886 734.988 466.337 733.98 467.152 732.72L468.603 730.515L470.234 731.964C471.141 732.783 472.138 734.169 472.41 735.051C472.773 735.933 474.042 737.446 475.311 738.517L477.577 740.344V738.58C477.577 736.627 478.302 736.438 479.843 737.95C480.931 738.958 481.112 738.832 481.656 736.69C482.019 735.429 482.653 734.358 483.107 734.358C484.285 734.358 485.735 736.627 485.735 738.391C485.735 739.462 486.642 740.47 488.455 741.415C490.268 742.297 491.174 743.368 491.174 744.377C491.174 745.259 491.537 746.456 491.99 746.897C492.715 747.653 492.987 747.464 493.441 746.141C494.528 743.368 496.795 744.314 497.973 748.094C498.789 750.803 499.695 750.614 501.146 747.59C502.505 744.818 503.865 744.251 503.865 746.519C503.865 747.338 504.409 748.535 505.134 749.165C506.313 750.299 506.494 750.173 507.491 747.59C508.126 746.015 508.76 744.377 508.942 743.936C509.123 743.494 509.667 743.242 510.12 743.494C510.573 743.683 511.208 743.557 511.57 743.179C511.933 742.801 512.568 742.738 513.111 742.927C513.655 743.179 514.471 742.927 514.924 742.486C515.468 741.919 515.922 741.856 516.193 742.297C516.465 742.675 517.191 743.557 517.916 744.188C519.094 745.322 519.185 745.322 520.363 744.251C521.089 743.557 522.358 743.179 523.173 743.305C524.171 743.431 525.168 742.864 525.893 741.919C526.709 740.911 527.797 740.407 528.975 740.47C530.516 740.596 531.241 740.029 532.42 737.635C533.326 735.996 534.233 734.232 534.505 733.728C534.867 732.972 535.048 732.972 535.32 733.854C535.774 735.114 537.405 735.366 537.405 734.169C537.405 733.791 538.221 734.106 539.128 734.925L540.85 736.501L541.303 734.925C541.666 733.476 541.666 733.476 542.935 735.492C543.569 736.627 544.657 737.383 545.201 737.257C545.836 737.068 546.561 737.383 546.833 737.95C547.286 738.706 547.649 738.769 548.736 738.139C549.824 737.509 550.096 737.572 550.096 738.391C550.096 740.029 551.547 739.525 553.088 737.446C554.538 735.24 554.991 735.492 555.988 739.084C556.351 740.47 556.804 741.856 557.076 742.108C557.711 742.864 561.518 737.572 562.243 734.799C562.787 732.72 564.6 731.46 564.6 733.161C564.6 733.476 565.053 733.602 565.506 733.413C566.05 733.224 567.591 733.917 568.951 735.114C570.311 736.249 572.033 737.572 572.758 738.139C573.484 738.643 575.115 740.029 576.294 741.226C578.379 743.179 578.56 743.242 579.648 742.234C580.826 741.163 580.917 741.163 581.551 742.297C582.005 743.116 582.639 742.171 583.727 739.084C585.177 734.862 585.449 734.736 586.809 737.824C587.172 738.643 587.443 738.643 589.075 737.698C590.072 737.068 590.888 735.996 590.888 735.24C590.888 734.484 591.432 733.539 592.157 733.161C592.792 732.783 593.608 731.523 593.97 730.452L594.514 728.436L596.236 730.578C597.143 731.775 598.14 733.791 598.503 735.051C598.775 736.249 599.862 738.328 600.86 739.714L602.582 742.108L603.579 740.407C604.032 739.462 604.485 738.391 604.485 737.95C604.485 737.572 605.029 737.761 605.755 738.454C606.842 739.525 606.933 739.525 607.477 738.076C607.839 737.005 608.746 736.501 610.378 736.375C611.737 736.312 613.55 735.618 614.366 734.925C615.907 733.539 615.998 733.539 617.176 736.438C617.902 738.265 618.899 739.525 619.986 739.714C620.984 739.966 621.709 740.47 621.709 740.911C621.709 741.352 622.253 742.234 622.978 742.864C624.156 743.999 624.338 743.936 625.425 741.415C625.969 739.966 626.876 738.769 627.238 738.769C627.601 738.769 628.598 740.47 629.505 742.486C630.864 746.015 632.587 747.401 634.4 746.645C634.853 746.456 636.031 744.188 637.21 741.604C638.298 739.021 639.748 736.564 640.382 736.186C641.108 735.807 641.652 735.114 641.652 734.673C641.652 733.602 646.184 733.665 646.819 734.736C647.09 735.24 647.816 735.618 648.541 735.618C649.266 735.618 649.901 735.996 649.901 736.375C650.354 739.336 650.535 739.966 651.079 740.596C652.348 741.982 653.436 741.289 653.436 739.147C653.436 737.95 653.889 736.186 654.433 735.177L655.521 733.413L656.246 735.303C656.609 736.312 657.243 738.013 657.515 738.958C658.15 741.226 659.419 740.659 660.144 737.761C660.688 735.933 661.05 735.681 662.138 736.249C662.863 736.69 663.407 737.446 663.407 737.887C663.407 739.147 665.039 738.958 666.308 737.509C667.849 735.807 668.574 735.933 670.115 737.95C670.84 738.958 671.747 739.588 672.2 739.462C672.563 739.336 673.469 739.966 674.104 740.911C675.282 742.486 675.464 742.549 676.914 741.667C677.82 741.1 678.999 740.659 679.633 740.659C680.177 740.659 681.084 739.966 681.718 739.084C683.078 737.005 683.894 737.572 684.619 740.974C685.344 744.314 686.795 745.196 687.52 742.738C688.154 740.344 691.327 740.218 692.052 742.549C692.324 743.431 692.868 744.629 693.412 745.196C693.865 745.826 694.228 746.771 694.228 747.275C694.228 749.354 696.041 747.401 697.401 743.936C698.216 741.982 699.395 739.651 700.12 738.769C700.755 737.887 701.752 735.933 702.386 734.421C703.293 732.027 703.655 731.712 705.559 731.964C707.281 732.216 707.825 731.964 708.369 730.641L708.913 729.003L709.819 730.893C710.273 731.901 710.907 733.224 711.089 733.728C711.632 734.799 715.984 729.318 715.984 727.553C716.074 726.608 716.165 726.608 716.981 727.679C717.797 728.562 718.159 728.688 718.794 727.994C719.247 727.427 719.882 728.12 720.607 730.137C721.241 731.712 722.057 732.846 722.329 732.594C723.236 731.775 726.68 730.641 727.224 731.019C727.496 731.271 727.768 732.342 727.768 733.476C727.768 734.925 728.221 735.555 729.49 735.807C730.669 735.996 731.394 735.744 731.666 735.051C732.028 734.106 732.844 735.114 734.567 738.58C735.111 739.714 738.374 738.832 739.099 737.32L739.824 735.933L740.187 737.32C740.368 738.139 740.912 738.769 741.275 738.769C742.181 738.769 743.903 741.667 744.266 743.746C744.719 746.33 746.26 745.826 747.711 742.675C748.708 740.596 749.524 739.777 750.521 739.903C751.609 740.029 752.243 739.399 752.787 737.824C753.875 734.862 755.144 734.925 756.413 737.95L757.41 740.344L759.042 737.95C760.22 736.123 760.945 735.744 761.761 736.249C762.668 736.753 763.302 736.627 764.209 735.681C764.934 734.925 765.75 734.547 766.112 734.736C766.384 734.925 767.11 733.917 767.653 732.468C768.651 729.822 770.554 729.318 771.098 731.586C771.189 732.216 771.551 733.476 771.823 734.358L772.367 735.933L773.455 734.484C774.543 733.098 774.724 733.035 776.084 734.043C776.99 734.61 777.625 735.681 777.625 736.375C777.625 737.131 777.897 737.509 778.259 737.32C778.531 737.068 779.347 737.194 779.982 737.572C780.888 738.139 781.341 738.013 781.795 737.257C782.067 736.69 782.611 736.375 782.973 736.564C783.336 736.69 784.152 735.807 784.786 734.61C785.421 733.413 786.237 732.594 786.69 732.783C787.143 732.972 787.778 732.405 788.14 731.523C788.865 729.57 789.953 729.948 790.588 732.468C791.313 734.673 792.763 734.988 793.307 732.909C793.67 731.523 793.67 731.523 794.667 733.098C795.211 733.98 795.664 734.421 795.664 734.106C795.755 733.791 796.299 733.917 797.024 734.295C798.112 734.925 798.474 734.61 799.381 732.846C800.922 729.444 801.828 729.57 803.097 733.413C803.732 735.303 804.366 736.879 804.638 736.879C805.363 736.879 808.445 734.169 808.445 733.476C808.536 733.098 809.08 733.476 809.805 734.358C810.893 735.744 811.074 735.807 811.618 734.862C811.981 734.232 812.615 733.917 813.069 734.106C813.522 734.295 813.884 733.98 813.884 733.476C813.884 731.397 815.697 732.594 816.241 734.988C816.604 736.375 817.148 737.509 817.601 737.509C818.054 737.509 818.326 737.32 818.236 737.068C818.145 736.753 818.508 735.618 819.051 734.484C820.139 732.405 822.043 731.712 822.043 733.413C822.043 733.917 822.405 734.358 822.768 734.358C823.584 734.358 825.941 737.824 827.029 740.47C827.844 742.486 830.111 742.801 830.745 740.974C831.38 739.21 833.827 738.328 833.827 739.84C833.827 740.659 834.099 740.659 835.187 740.029C836.275 739.399 836.547 739.399 836.637 740.092C836.637 740.596 837.091 740.281 837.634 739.399C838.541 737.887 838.632 737.887 839.991 740.848C840.807 742.486 841.804 743.746 842.348 743.62C842.892 743.494 843.617 741.541 844.07 739.336C844.614 736.06 845.158 735.051 847.243 733.917C849.6 732.531 849.691 732.468 849.963 733.728C850.144 734.421 850.507 734.988 850.869 734.988C852.138 734.988 855.583 730.011 856.127 727.49C856.671 725.033 856.852 724.907 858.302 725.852C860.115 726.986 860.569 726.734 861.384 723.836C861.747 722.765 862.654 721.505 863.379 721.064C864.104 720.686 864.648 719.866 864.648 719.236C864.648 717.598 865.736 717.22 867.549 718.417C868.546 718.984 869.18 720.308 869.18 721.568C869.18 723.206 869.543 723.647 870.631 723.521C871.809 723.395 872.444 724.214 873.35 727.364C874.71 731.838 875.254 732.531 876.432 731.208C877.067 730.452 877.429 730.452 878.698 731.208C880.058 731.964 880.421 731.964 881.418 731.019C882.415 730.011 882.596 730.074 883.503 731.649C884.047 732.657 884.772 734.484 885.134 735.744C885.678 738.076 886.675 738.769 887.763 737.509C888.851 736.249 889.939 736.942 891.389 739.966C893.112 743.683 895.106 744.503 896.466 742.108C897.281 740.533 897.372 740.533 898.641 741.667C899.82 742.801 899.91 742.801 900.454 741.1C900.907 740.029 901.633 739.462 902.448 739.525C903.989 739.714 908.069 732.279 908.159 729.192C908.159 728.247 908.613 726.734 909.066 725.789C909.972 724.151 910.063 724.151 911.785 725.222C912.782 725.852 913.598 726.797 913.598 727.301C913.598 728.057 914.142 727.931 915.774 726.86C917.859 725.537 919.944 725.474 919.944 726.797C919.944 728.31 924.748 732.153 926.833 732.279C928.011 732.342 929.009 732.153 929.009 731.838C929.009 731.523 929.734 731.208 930.64 731.082C932.816 730.767 937.983 735.366 938.617 738.328C939.433 741.73 940.521 741.73 941.155 738.265C941.518 736.438 942.425 734.862 943.512 734.169C944.509 733.602 945.325 732.657 945.325 732.153C945.325 731.586 945.779 731.334 946.232 731.523C946.776 731.712 947.138 732.657 947.138 733.602C947.138 734.547 947.592 735.744 948.045 736.249C948.77 737.068 948.951 737.068 948.951 736.123C948.951 735.555 949.495 734.799 950.22 734.547C950.855 734.295 951.671 733.602 951.943 733.098C952.305 732.405 952.577 732.468 953.03 733.539C953.846 735.303 955.75 734.799 957.11 732.405C957.744 731.397 958.469 730.641 958.651 730.83C958.923 731.019 960.01 730.578 961.008 729.885L963.002 728.625L963.727 730.389C964.09 731.334 964.724 732.972 965.177 734.043C965.631 735.051 966.537 737.257 967.172 738.958C967.806 740.596 968.713 741.919 968.985 741.919C969.347 741.919 970.163 740.911 970.707 739.651C971.342 738.265 972.248 737.572 972.973 737.761C973.608 737.887 974.605 737.698 975.149 737.32C975.874 736.816 976.146 736.816 976.146 737.383C976.146 737.824 976.599 738.139 977.052 738.139C977.596 738.139 977.959 737.698 977.959 737.194C977.959 735.429 979.5 736.249 980.134 738.265C980.678 740.092 980.86 740.218 981.676 739.21C982.582 738.076 982.673 738.076 983.942 739.21C984.576 739.84 985.211 740.029 985.211 739.714C985.301 739.336 985.664 739.651 986.027 740.344C986.752 741.541 986.842 741.541 987.749 740.029C988.293 739.147 988.927 737.446 989.29 736.186C989.743 734.232 990.106 733.854 992.009 733.98C993.279 733.98 994.276 734.421 994.276 734.862C994.276 735.24 994.638 735.555 995.092 735.492C995.545 735.366 996.542 735.87 997.267 736.564C998.536 737.761 998.718 737.761 1000.35 736.69C1002.34 735.492 1004.79 735.303 1005.61 736.312C1005.97 736.69 1006.79 736.816 1007.51 736.627C1008.24 736.438 1008.96 736.627 1009.14 737.068C1010.41 739.966 1010.59 740.155 1011.77 739.462C1012.68 738.958 1013.31 739.021 1014.04 739.525C1014.76 740.029 1015.4 740.029 1016.39 739.462C1017.57 738.769 1017.84 738.895 1018.39 740.281C1018.66 741.163 1019.29 741.919 1019.75 741.919C1021.02 741.919 1022.38 739.588 1022.38 737.257C1022.38 735.996 1022.83 734.988 1023.28 734.988C1023.83 734.988 1024.19 735.681 1024.19 736.501C1024.19 737.257 1024.64 738.832 1025.19 739.903L1026.18 741.856L1028.18 740.344L1030.26 738.769L1031.62 741.163L1032.98 743.494L1034.52 740.974C1035.97 738.643 1036.16 738.517 1037.33 739.651C1038.06 740.344 1039.24 740.659 1040.05 740.47C1040.96 740.218 1041.41 740.47 1041.41 741.226C1041.41 741.856 1042.05 742.738 1042.77 743.179C1043.86 743.809 1044.13 743.809 1044.13 743.116C1044.13 742.612 1044.86 742.864 1045.85 743.746C1047.94 745.637 1049.21 745.133 1050.57 741.919C1051.2 740.596 1052.29 739.399 1053.2 739.21C1054.1 739.021 1055.1 738.013 1055.46 736.816C1055.92 735.618 1056.37 735.051 1056.55 735.492C1057.28 736.942 1060.27 737.635 1062.26 736.753C1064.71 735.681 1064.53 735.24 1061.63 734.673L1059.09 734.232L1062.17 733.539C1066.52 732.468 1066.89 730.011 1062.9 728.436C1060.18 727.364 1060.09 727.301 1061.81 726.419C1062.72 725.915 1064.17 725.537 1064.89 725.537C1066.89 725.474 1071.33 722.702 1071.33 721.505C1071.33 720.938 1070.33 720.371 1069.06 720.118C1066.43 719.677 1066.07 718.795 1068.43 718.417C1069.79 718.228 1069.79 718.102 1068.15 717.724C1067.16 717.472 1065.71 717.031 1064.98 716.779C1064.26 716.527 1061.45 715.897 1058.91 715.519C1054.56 714.763 1052.47 713.629 1055.28 713.503C1055.83 713.503 1055.01 713.188 1053.38 712.873C1051.02 712.368 1050.57 712.053 1051.29 711.423C1052.02 710.793 1051.93 710.352 1050.93 709.785C1048.94 708.651 1049.21 707.958 1051.93 707.202C1055.1 706.383 1054.56 706.131 1048.12 705.312C1040.69 704.366 1039.24 703.421 1043.77 702.413C1046.94 701.783 1047.12 701.657 1045.31 701.216C1044.13 701.027 1043.23 700.712 1043.23 700.586C1043.23 700.46 1044.4 699.515 1045.95 698.57C1049.03 696.49 1048.67 695.923 1044.68 695.923C1039.15 695.923 1039.33 694.852 1045.04 694.033C1048.39 693.529 1050.12 693.025 1049.48 692.71C1048.03 692.08 1050.02 690.253 1052.2 690.19C1053.02 690.19 1055.46 689.686 1057.64 689.056L1061.63 687.921L1057.46 686.535C1055.1 685.716 1052.93 684.834 1052.65 684.519C1052.38 684.141 1051.11 683.637 1049.93 683.259C1047.67 682.692 1047.67 682.692 1049.3 681.117C1050.21 680.297 1051.66 679.415 1052.47 679.226C1053.47 678.974 1053.92 678.344 1053.74 677.525C1053.56 676.517 1052.38 676.013 1048.57 675.32C1041.59 674.123 1041.59 674.123 1044.4 673.304C1045.76 672.925 1046.85 672.421 1046.85 672.106C1046.85 671.539 1052.11 670.09 1054.38 670.09C1056.28 670.09 1062.35 667.255 1061.63 666.688C1061.27 666.499 1060.18 666.31 1059 666.31C1057.64 666.31 1057.1 665.932 1057.19 665.175C1057.28 664.482 1056.28 663.915 1054.38 663.474C1050.84 662.781 1050.39 661.269 1053.65 661.269C1054.92 661.269 1055.92 660.954 1055.92 660.639C1055.92 660.261 1055.28 660.009 1054.47 660.009C1052.29 660.009 1053.47 658.56 1056.01 658.056C1057.19 657.804 1059.72 657.615 1061.54 657.552C1064.44 657.489 1064.89 657.299 1064.71 656.165C1064.53 655.472 1063.8 654.59 1063.17 654.338C1062.08 653.897 1062.17 653.708 1063.44 653.456C1068.43 652.322 1068.34 652.385 1065.98 651.566C1063.98 650.81 1063.98 650.747 1065.53 650.306C1067.16 649.865 1067.16 649.802 1065.71 649.045C1064.35 648.352 1064.35 648.226 1065.71 646.966C1066.61 646.21 1068.06 645.517 1069.06 645.328C1070.51 645.076 1070.33 644.95 1068.06 644.572C1066.61 644.32 1064.8 643.627 1064.26 642.934C1063.35 641.926 1063.53 641.737 1066.61 641.169C1068.43 640.854 1072.14 640.413 1074.68 640.161C1079.94 639.72 1081.48 638.964 1078.49 638.397C1077.13 638.145 1076.68 637.704 1077.04 637.074C1077.4 636.507 1077.22 636.066 1076.68 636.066C1075.32 636.066 1073.77 632.789 1074.95 632.285C1076.68 631.529 1074.95 629.954 1071.06 628.757C1066.98 627.497 1066.25 626.426 1069.15 626.111C1072.69 625.606 1072.23 624.85 1067.79 623.716L1063.17 622.582L1065.89 621.826C1067.79 621.259 1068.43 620.692 1068.06 620.062C1067.79 619.495 1066.98 619.054 1066.43 619.054C1065.8 619.054 1064.53 618.676 1063.62 618.172C1062.08 617.415 1062.26 617.289 1065.89 616.407L1069.79 615.525L1067.7 614.139C1066.52 613.383 1064.71 612.753 1063.62 612.753C1062.53 612.753 1060.9 612.312 1059.91 611.808C1058.27 610.989 1058.36 610.863 1062.08 609.854C1066.25 608.657 1067.07 607.712 1063.89 607.712C1061.9 607.649 1061.9 607.586 1064.26 606.767L1066.7 605.822L1064.44 604.247C1063.17 603.365 1062.44 602.357 1062.72 601.978C1063.62 601.033 1061.54 599.647 1058.36 599.143C1055.74 598.765 1055.65 598.702 1057.28 597.883C1058.73 597.127 1058.73 596.875 1057.64 595.993C1056.91 595.426 1056.55 594.733 1056.73 594.544C1057.37 593.976 1051.38 591.33 1049.57 591.33C1047.49 591.33 1046.58 588.873 1048.21 587.739C1048.94 587.298 1050.84 586.479 1052.56 585.974C1054.19 585.47 1056.1 584.714 1056.73 584.21C1057.64 583.454 1057.28 583.139 1055.01 582.635C1053.47 582.257 1052.02 581.501 1051.75 580.934C1051.38 580.367 1050.12 579.548 1048.76 579.044L1046.4 578.161L1048.48 577.72C1049.57 577.531 1050.48 577.153 1050.48 576.964C1050.48 576.334 1047.31 575.011 1045.76 574.948C1043.59 574.948 1043.68 573.688 1045.85 573.688C1048.76 573.688 1050.39 572.995 1049.84 572.05C1049.57 571.546 1050.39 570.6 1051.84 569.781C1054.19 568.521 1054.29 568.395 1052.65 567.576C1051.75 567.135 1050.3 566.757 1049.3 566.757C1048.39 566.757 1047.85 566.505 1048.21 566.19C1048.48 565.875 1051.48 565.371 1054.83 565.182C1061.72 564.678 1064.62 563.922 1062.08 563.355C1057 562.22 1057.1 562.346 1060 560.708C1061.63 559.826 1062.62 558.755 1062.44 557.999C1062.26 557.18 1062.9 556.676 1064.53 556.424C1065.8 556.172 1066.79 555.731 1066.79 555.416C1066.79 554.596 1059.72 552.265 1057.37 552.265C1055.55 552.265 1051.84 551.005 1053.56 551.005C1054.01 551.005 1051.48 549.997 1047.94 548.737C1041.41 546.405 1040.42 545.334 1044.86 545.334C1048.12 545.334 1054.1 544.137 1054.1 543.507C1054.1 543.255 1053.2 542.751 1052.11 542.373C1050.12 541.743 1050.12 541.743 1052.74 540.861C1056.19 539.664 1056.55 538.655 1053.56 538.151C1050.48 537.584 1048.3 535.82 1049.84 535.127C1050.48 534.875 1052.2 534.623 1053.74 534.623C1055.19 534.623 1057.28 534.245 1058.18 533.741C1059.81 532.922 1059.81 532.859 1058.09 532.544C1057.19 532.355 1055.01 532.04 1053.38 531.788L1050.39 531.347L1053.83 529.204C1055.65 528.007 1057.64 527.062 1058.27 527.062C1058.82 527.062 1059.81 526.621 1060.45 526.117C1061.36 525.298 1061.36 524.92 1060.09 523.975C1058.64 522.84 1058.73 522.777 1061.99 522.21C1064.53 521.832 1065.53 521.328 1065.71 520.257C1065.89 519.501 1065.53 518.871 1064.98 518.871C1064.44 518.871 1064.17 518.619 1064.44 518.304C1064.71 518.052 1063.89 517.485 1062.72 517.107C1060.27 516.351 1060.45 514.649 1062.99 514.334C1063.98 514.208 1062.9 513.452 1059.72 512.066C1057.19 510.995 1055.01 509.798 1055.01 509.483C1055.01 509.168 1056.73 507.908 1058.91 506.584C1068.43 500.725 1068.06 501.103 1066.25 500.158C1064.8 499.464 1064.8 499.338 1066.07 499.338C1066.89 499.338 1067.79 499.086 1068.06 498.771C1068.43 498.456 1065.53 497.574 1061.81 496.755C1055.1 495.432 1053.65 494.613 1056.37 493.92C1057.1 493.668 1057.46 493.227 1057.19 492.912C1056.46 492.093 1058.55 491.147 1061.17 491.147C1063.98 491.147 1063.71 490.139 1060.72 489.383L1058.18 488.816L1060.72 487.997C1062.08 487.556 1063.17 486.926 1063.17 486.611C1063.17 486.359 1063.98 486.107 1064.98 486.107C1065.98 486.107 1066.79 485.666 1066.79 485.162C1066.79 484.595 1065.98 484.217 1064.89 484.217C1063.8 484.217 1062.81 483.712 1062.53 482.956C1062.26 482.263 1061.72 481.696 1061.27 481.696C1059.36 481.696 1060.63 479.806 1062.81 479.428C1064.26 479.176 1064.71 478.861 1064.08 478.546C1062.99 478.105 1066.7 476.025 1068.7 476.025C1069.42 476.025 1069.42 475.773 1068.61 475.08C1067.97 474.576 1066.98 474.135 1066.34 474.135C1065.16 474.135 1063.89 471.111 1064.89 470.733C1065.16 470.607 1067.16 470.292 1069.33 470.04C1072.87 469.662 1074.77 468.465 1071.87 468.465C1070.15 468.465 1068.25 466.826 1069.51 466.259C1070.87 465.692 1070.6 464.684 1069.06 464.684C1067.07 464.684 1067.43 463.55 1069.6 463.109C1071.42 462.668 1071.42 462.668 1069.79 461.849C1068.88 461.408 1065.71 460.715 1062.72 460.336C1059.81 459.958 1057.28 459.517 1057.1 459.391C1056.91 459.265 1058.36 458.698 1060.45 458.131C1064.62 456.997 1064.98 456.367 1061.81 455.359C1060.54 454.981 1059.54 454.351 1059.54 453.973C1059.54 453.658 1059 453.343 1058.46 453.343C1057.82 453.343 1056.73 453.091 1056.01 452.776C1054.92 452.271 1054.92 451.956 1056.19 450.633C1057.55 449.184 1057.55 448.995 1056.28 448.68C1055.46 448.491 1054.1 448.302 1053.11 448.302C1052.2 448.302 1051.38 447.987 1051.38 447.672C1051.38 447.294 1051.84 447.042 1052.38 447.042C1052.93 447.042 1053.2 446.664 1052.93 446.16C1052.65 445.719 1052.83 445.026 1053.29 444.711C1053.92 444.269 1052.93 443.954 1050.57 443.639C1048.57 443.45 1046.58 442.883 1046.22 442.379C1045.85 441.938 1044.31 441.245 1042.77 440.867L1040.05 440.237L1042.5 440.174C1044.13 440.111 1045.49 439.544 1046.49 438.536C1047.31 437.654 1048.48 436.961 1049.03 436.961C1049.57 436.961 1050.75 436.393 1051.66 435.7C1052.47 435.007 1053.83 434.44 1054.56 434.44C1057 434.44 1056.01 433.369 1053.02 432.739C1050.02 432.109 1050.02 432.109 1052.2 431.479C1055.19 430.66 1053.65 430.093 1046.94 429.589C1043.86 429.4 1041.14 428.959 1040.87 428.706C1040.6 428.391 1041.05 428.139 1041.87 428.139C1042.77 428.139 1044.77 427.698 1046.49 427.131C1049.39 426.186 1049.48 425.997 1048.03 425.241C1046.49 424.422 1046.49 424.422 1048.03 424.359C1048.85 424.359 1050.48 423.666 1051.57 422.784C1052.65 421.902 1054.47 421.209 1055.55 421.209C1056.73 421.209 1057.91 420.956 1058.18 420.578C1058.46 420.2 1059.72 419.948 1060.9 419.948C1063.89 419.948 1064.62 418.751 1062.35 417.68C1060.18 416.609 1059.81 415.538 1061.63 415.538C1063.26 415.538 1063.08 413.08 1061.36 412.765C1060.63 412.576 1058.36 412.324 1056.28 412.072C1054.29 411.883 1051.48 411.19 1050.12 410.56C1047.85 409.552 1047.76 409.363 1049.3 408.922C1050.57 408.607 1049.93 408.229 1046.4 407.536L1041.87 406.591L1043.95 405.457C1045.04 404.826 1045.95 404.007 1045.95 403.692C1045.95 402.999 1049.03 402.306 1052.38 402.306C1053.65 402.306 1054.92 402.117 1055.28 401.928C1056.19 401.298 1054.92 399.786 1053.47 399.786C1052.56 399.786 1052.38 399.408 1052.74 398.589C1053.2 397.518 1052.74 397.265 1049.84 396.95C1043.95 396.257 1043.5 395.816 1048.21 395.375C1053.74 394.808 1057.73 393.548 1057.73 392.414C1057.73 391.973 1058.36 391.595 1059.09 391.595C1060.81 391.595 1060.81 390.587 1059.09 389.579C1058.27 389.137 1056.64 388.129 1055.46 387.31C1054.29 386.554 1052.93 385.924 1052.47 385.924C1050.66 385.924 1050.66 384.16 1052.47 383.845C1054.65 383.404 1053.83 382.144 1051.29 382.144C1048.48 382.144 1049.3 381.009 1052.56 380.568C1058.27 379.749 1061.17 378.489 1060.72 376.977C1060.36 375.78 1060.9 375.339 1063.35 374.709C1066.25 373.89 1066.34 373.827 1064.26 373.259C1063.08 372.944 1061.45 372.251 1060.63 371.684C1059.27 370.739 1059.36 370.55 1061.27 369.479C1062.44 368.786 1064.62 368.282 1066.25 368.282C1067.79 368.282 1070.51 367.967 1072.42 367.652C1075.13 367.085 1075.59 366.77 1075.23 365.698C1074.95 365.005 1074.05 364.249 1073.23 364.06C1070.87 363.43 1068.61 361.855 1068.61 360.721C1068.61 359.713 1064.08 358.201 1061.17 358.201C1060.36 358.201 1058.73 357.822 1057.55 357.381C1055.65 356.751 1055.37 356.31 1056.1 355.113C1056.64 353.979 1056.46 353.412 1055.28 352.845C1054.38 352.341 1053.92 351.774 1054.29 351.522C1054.65 351.27 1054.56 350.703 1054.01 350.262C1053.29 349.631 1054.01 349.379 1057.19 349.064C1061.36 348.623 1063.89 347.489 1060.63 347.489C1059.72 347.489 1058.09 346.796 1057 345.914C1055.92 345.032 1054.56 344.339 1054.01 344.339C1053.47 344.339 1053.2 343.961 1053.47 343.457C1053.83 342.827 1052.83 342.259 1050.66 341.629L1047.31 340.684L1049.57 340.054C1050.84 339.739 1054.01 339.235 1056.64 338.983C1061.36 338.542 1063.26 337.408 1059.36 337.408C1057.64 337.408 1057.55 337.282 1058.64 336.778C1059.72 336.274 1059.63 336.148 1058 336.148C1056.82 336.148 1055.92 335.77 1055.92 335.329C1055.92 334.888 1054.47 334.005 1052.65 333.375C1049.48 332.367 1049.39 332.241 1051.02 331.485C1051.93 331.044 1053.65 330.477 1054.83 330.225C1055.92 329.973 1056.82 329.532 1056.82 329.217C1056.82 328.902 1058.27 328.461 1060 328.209C1063.62 327.768 1063.44 326.949 1059.54 326.381C1055.28 325.751 1055.46 324.932 1060.36 322.79C1064.89 320.9 1064.98 320.837 1063.08 319.892C1061.63 319.199 1061.45 318.821 1062.35 318.505C1063.08 318.127 1062.35 317.812 1060.18 317.56C1056.37 317.056 1056.19 316.804 1058.46 315.607C1059.91 314.788 1059.81 314.662 1057.73 313.465C1056.46 312.772 1055.1 312.205 1054.74 312.205C1054.29 312.205 1053.38 311.764 1052.65 311.26C1051.84 310.755 1049.84 310.314 1048.21 310.314C1046.49 310.314 1044.86 309.999 1044.59 309.684C1044.22 309.306 1045.31 309.054 1047.12 309.054C1048.76 309.054 1050.39 308.865 1050.75 308.676C1051.84 307.857 1048.76 306.534 1044.86 306.156C1042.77 305.967 1039.78 305.463 1038.33 305.085C1035.97 304.518 1035.88 304.329 1037.42 303.951C1038.33 303.699 1040.6 303.447 1042.32 303.384C1044.04 303.384 1046.49 302.942 1047.76 302.438C1049.03 301.934 1051.02 301.493 1052.29 301.493C1053.56 301.493 1055.19 301.178 1055.92 300.863C1057.1 300.359 1056.91 300.17 1055.28 299.855C1052.47 299.351 1052.65 298.469 1055.74 297.65C1057.1 297.335 1058.82 296.894 1059.54 296.642C1060.27 296.453 1058.36 295.886 1055.01 295.319L1049.12 294.373L1052.74 293.617C1054.74 293.176 1055.83 292.798 1055.1 292.735C1054.47 292.672 1051.93 292.042 1049.48 291.286C1044.77 289.774 1043.59 288.01 1046.94 287.317C1048.76 286.875 1048.76 286.875 1047.12 285.993C1045.58 285.174 1045.58 285.048 1047.21 284.166C1048.21 283.662 1048.48 283.221 1047.94 283.221C1045.76 283.221 1046.94 281.898 1049.57 281.268C1052.11 280.638 1053.29 279.441 1051.38 279.441C1050.93 279.441 1050.48 279.188 1050.48 278.873C1050.48 278.306 1053.29 277.487 1059.36 276.29L1063.35 275.597L1060.99 274.085C1058.64 272.573 1058.73 271.88 1061.54 271.88C1062.53 271.88 1063.08 271.628 1062.72 271.312C1062.44 270.997 1062.72 270.493 1063.35 270.241C1064.08 269.926 1063.89 269.611 1062.62 269.296C1061.08 268.855 1061.08 268.792 1062.53 268.792C1064.62 268.729 1064.53 267.658 1062.26 267.154C1060.27 266.713 1059.81 265.642 1061.63 265.516C1062.17 265.453 1061.17 265.138 1059.27 264.697C1057.19 264.256 1055.37 263.373 1054.74 262.428C1054.1 261.546 1052.65 260.538 1051.48 260.16C1050.02 259.656 1049.75 259.341 1050.66 259.026C1051.57 258.711 1051.57 258.585 1050.75 258.27C1048.76 257.64 1049.48 256.758 1052.11 256.758C1053.47 256.758 1055.1 256.506 1055.74 256.191C1057.19 255.56 1050.48 254.237 1046.04 254.237C1044.59 254.237 1042.77 253.859 1042.14 253.418C1040.14 252.032 1037.15 251.087 1034.71 251.087C1033.25 251.087 1032.35 250.709 1032.35 250.205C1032.35 249.575 1030.9 249.134 1028.09 248.819L1023.74 248.378L1028.27 247.432C1035.61 245.983 1035.7 245.857 1031.53 245.353C1029.36 245.038 1027.36 244.66 1027.09 244.534C1026.18 243.904 1028.9 242.329 1032.17 241.573C1033.98 241.195 1036.97 240.25 1038.69 239.43C1040.42 238.611 1043.04 237.54 1044.59 237.036L1047.21 236.091L1042.05 235.335C1037.15 234.642 1034.98 233.445 1038.51 233.445C1039.96 233.382 1039.96 233.382 1038.51 232.563C1037.61 232.121 1037.15 231.554 1037.42 231.365C1037.79 231.113 1036.34 230.798 1034.25 230.546C1031.44 230.231 1030.72 229.916 1031.44 229.349C1031.89 228.971 1032.08 228.404 1031.8 228.215C1031.44 228.026 1032.44 227.648 1033.8 227.459C1039.24 226.64 1045.95 225.002 1045.22 224.561C1044.86 224.308 1043.59 223.993 1042.32 223.867C1039.15 223.615 1038.78 221.662 1041.78 221.095C1043.14 220.906 1043.86 220.402 1043.5 220.024C1043.23 219.709 1043.68 219.016 1044.5 218.575C1046.04 217.819 1045.95 217.756 1044.22 217.063C1043.14 216.685 1042.32 216.054 1042.32 215.676C1042.32 215.298 1041.69 214.416 1040.87 213.849C1039.51 212.778 1039.51 212.589 1040.87 211.077C1041.69 210.195 1043.23 209.502 1044.22 209.502C1045.22 209.502 1045.76 209.187 1045.49 208.872C1045.22 208.493 1044.04 208.241 1042.86 208.241C1040.69 208.241 1038.69 207.17 1038.69 205.973C1038.69 205.532 1040.69 204.713 1043.14 204.083C1047.21 203.075 1047.67 202.823 1047.49 201.185C1047.4 200.239 1047.03 199.42 1046.67 199.42C1046.22 199.42 1045.95 199.168 1045.95 198.853C1045.95 198.16 1047.12 197.908 1054.19 196.9C1057 196.522 1060.09 195.829 1060.99 195.388C1062.53 194.569 1062.35 194.443 1058.64 193.75C1053.11 192.741 1052.47 191.733 1056.64 190.914C1059 190.473 1060 189.906 1060 189.087C1060 188.394 1060.99 187.638 1062.26 187.323C1063.98 186.882 1064.17 186.63 1063.17 186.189C1062.26 185.811 1062.9 185.559 1065.25 185.244C1069.15 184.739 1070.15 183.983 1068.06 183.164C1066.25 182.471 1066.98 180.518 1069.06 180.518C1071.33 180.518 1075.95 178.628 1075.41 177.998C1075.13 177.683 1073.59 177.178 1071.96 176.863L1069.06 176.296L1073.59 174.847L1078.13 173.398L1073.32 172.39C1068.34 171.256 1067.97 170.437 1072.42 170.437C1076.13 170.437 1075.5 169.555 1071.15 168.735C1064.26 167.475 1059.09 166.404 1058.64 166.152C1058.46 166.026 1058.82 165.711 1059.54 165.396C1060.63 164.955 1060.45 164.703 1058.64 164.262C1056.46 163.695 1056.46 163.695 1058.27 163.254C1060.81 162.687 1060.09 159.851 1057.19 158.969C1053.38 157.709 1054.92 156.449 1062.08 155C1064.44 154.559 1063.89 153.424 1061.27 153.424C1058.46 153.424 1059.27 152.29 1062.53 151.786L1065.44 151.345L1062.72 150.526C1061.27 150.085 1060.45 149.707 1060.9 149.644C1061.45 149.644 1060.18 149.077 1058.18 148.447C1056.19 147.754 1055.1 147.187 1055.74 147.187C1057.91 147.061 1056.82 146.179 1052.65 144.603C1048.03 142.902 1048.39 142.587 1055.37 141.768C1059.72 141.264 1058.82 140.634 1052.11 139.563C1047.4 138.807 1046.94 138.618 1047.4 137.357C1047.76 136.286 1047.4 135.845 1045.85 135.593C1044.13 135.278 1044.04 135.089 1045.04 134.27C1045.67 133.703 1046.67 133.262 1047.31 133.262C1047.94 133.262 1048.94 132.821 1049.57 132.317C1050.39 131.687 1050.39 131.372 1049.66 131.372C1048.12 131.372 1048.48 129.607 1050.3 128.284C1051.11 127.591 1052.83 126.961 1054.1 126.835C1056.19 126.583 1056.01 126.457 1052.56 125.449C1046.76 123.748 1047.49 122.803 1056.19 120.912C1059.36 120.219 1061.36 119.463 1061.36 118.896C1061.36 118.392 1062.08 117.573 1062.9 117.195C1064.44 116.376 1064.44 116.313 1062.9 115.179C1061.36 113.981 1061.45 113.918 1064.71 112.721C1066.61 112.091 1068.7 111.146 1069.33 110.705C1069.97 110.327 1070.96 109.949 1071.42 109.949C1073.23 109.949 1072.05 108.815 1069.79 108.374C1068.52 108.185 1066.43 107.429 1065.25 106.799C1064.08 106.168 1061.81 105.412 1060.27 105.223C1057.91 104.845 1057.73 104.656 1058.91 104.152C1059.72 103.837 1060.45 103.018 1060.45 102.325C1060.45 101.443 1061.27 101.002 1063.17 100.687C1066.79 100.246 1068.61 98.1034 1066.34 96.9693C1065.53 96.5282 1065.07 95.8982 1065.34 95.5201C1065.71 95.1421 1063.53 94.386 1060.27 93.6299C1057.1 92.9998 1055.19 92.3697 1056.01 92.3697C1056.82 92.3067 1057.73 91.9287 1058 91.4246C1058.27 90.9205 1060.18 90.3535 1062.17 90.1014C1064.26 89.8494 1065.89 89.4083 1065.89 89.0933C1065.89 88.7783 1065.53 88.5262 1065.07 88.5262C1064.62 88.5262 1064.08 87.9592 1063.8 87.2661C1063.53 86.51 1062.53 86.0059 1061.36 86.0059C1059.91 86.0059 1059.54 85.7539 1059.91 85.0608C1060.18 84.5567 1060 84.1157 1059.45 84.1157C1057.55 84.1157 1059.63 82.9185 1062.26 82.5405C1064.89 82.1624 1065.89 80.7762 1064.08 80.0202C1062.62 79.3901 1062.99 77.8149 1064.8 77.3738C1067.25 76.7437 1070.42 74.8535 1069.79 74.4124C1069.51 74.2234 1069.88 74.0344 1070.69 74.0344C1071.51 74.0344 1072.14 73.7194 1072.05 73.2783C1071.87 72.9002 1073.41 72.2072 1075.41 71.8291L1079.03 71.073L1075.23 70.3169C1071.15 69.5608 1068.61 68.1746 1068.61 66.7885C1068.61 66.2844 1067.79 65.5913 1066.79 65.2133C1064.53 64.3942 1064.53 63.8901 1066.7 62.3149C1068.34 61.0547 1068.34 60.9917 1066.79 60.2986C1065.89 59.9206 1063.71 59.4165 1061.9 59.2275C1058 58.6604 1057 57.9043 1059.54 57.3373C1061.54 56.8962 1061.99 55.7621 1060.27 55.7621C1059 55.7621 1050.48 51.8556 1050.48 51.3515C1050.48 51.1625 1052.74 50.2804 1055.55 49.4613L1060.63 47.8861L1058.73 46.4999L1056.82 45.0507L1059.09 44.6727C1061.9 44.1686 1061.99 43.2865 1059.36 42.5934C1057.46 42.0893 1057.73 41.9633 1061.36 41.2702C1066.16 40.3881 1072.23 38.6869 1072.23 38.1198C1072.23 37.9308 1073.23 37.0487 1074.41 36.1666C1076.4 34.6544 1076.49 34.4654 1075.13 33.6463C1074.23 33.1422 1071.69 32.2601 1069.42 31.63C1067.07 30.9999 1063.44 29.3617 1061.27 27.9755L1057.28 25.4552L1056.55 27.0304C1055.55 29.1097 1053.2 29.6768 1052.56 27.9755L1052.02 26.6524L1050.93 28.0386L1049.84 29.4877L1049.21 27.7865C1048.48 25.6442 1046.85 26.2743 1046.85 28.6686C1046.85 31.1259 1045.22 33.8983 1044.13 33.3942C1043.68 33.2052 1043.23 32.5121 1043.23 31.882C1043.23 31.1259 1042.59 30.7479 1041.69 30.8109C1040.78 30.8109 1039.96 30.3698 1039.78 29.6768C1039.6 29.0467 1039.06 28.1646 1038.6 27.7865C1038.15 27.4085 1036.88 26.2743 1035.7 25.2032L1033.71 23.313L1032.71 27.0934C1031.62 31.0629 1031.35 30.8739 1030.08 25.3292C1029.45 22.4938 1027.82 22.4938 1026.73 25.3292C1026.37 26.4003 1025.37 27.5975 1024.64 28.0386C1023.92 28.4796 1023.28 29.1727 1023.28 29.5507C1023.28 29.9288 1022.47 30.7479 1021.47 31.378C1020.47 31.945 1019.66 32.8902 1019.66 33.5202C1019.66 36.4186 1016.67 30.9369 1015.58 25.9593C1015.12 23.943 1014.76 23.628 1013.67 24.3211C1012.95 24.6991 1012.22 24.9512 1012.04 24.8251C1011.23 24.1321 1009.69 20.0995 1009.69 18.5873C1009.69 17.7052 1009.05 15.5 1008.33 13.7357C1007.15 11.0264 1006.69 10.5853 1005.15 10.8374C1004.07 11.0264 1003.16 10.7744 1002.8 10.1443C1002.52 9.57721 1001.71 9.13615 1001.07 9.13615C1000.44 9.13615 999.624 8.69509 999.352 8.12802C998.899 7.30892 998.536 7.24591 997.448 7.87599C996.723 8.25404 995.817 8.44306 995.363 8.25404C994.457 7.87599 991.919 12.2235 990.65 16.5081C990.197 17.9573 989.199 20.2256 988.384 21.5487L986.933 23.943L985.664 22.3678C984.939 21.4857 984.395 21.0447 984.304 21.3597C984.304 21.6747 983.579 21.4227 982.582 20.8556C981.132 19.9105 980.86 19.9105 980.406 20.7926C979.681 22.0528 976.418 21.9898 975.33 20.6666C974.242 19.2804 973.426 19.8475 972.611 22.4308C971.795 25.1402 970.254 25.3922 969.075 22.9979C968.531 21.9898 967.716 21.1077 967.172 21.1077C966.718 21.1077 964.996 23.439 963.455 26.3373C960.464 31.882 958.651 32.8902 956.838 30.1178C956.294 29.2987 955.387 28.7316 954.753 28.9207C953.121 29.3617 950.764 27.2194 950.13 24.6361C949.586 22.2418 948.045 21.4857 948.045 23.565C948.045 25.7073 946.322 25.6442 945.507 23.502L944.781 21.4227L944.056 23.628L943.331 25.8333L942.515 23.817C942.062 22.7459 940.249 20.3516 938.527 18.4613C936.804 16.6341 935.354 14.7439 935.354 14.3028C935.354 13.7987 934.81 13.5467 933.994 13.7987C933.269 13.9878 932.634 13.8617 932.634 13.5467C932.634 13.1687 931.819 12.9166 930.821 12.9166C929.462 12.9166 929.009 13.3577 929.009 14.4918C929.009 16.7601 927.739 16.4451 926.38 13.8617C925.473 12.0345 924.839 11.6565 923.479 11.9715C922.482 12.2235 921.757 12.0975 921.757 11.7195C921.757 11.3414 921.394 11.0264 920.85 11.0264C920.397 11.0264 919.944 11.5935 919.944 12.2865C919.944 13.7357 918.584 13.9878 917.768 12.6016C916.862 10.9004 912.964 12.6016 909.519 16.2561C908.613 17.2642 907.343 17.8943 906.709 17.7052C905.984 17.5162 905.44 17.6422 905.44 17.9573C905.44 18.3353 905.077 18.5873 904.533 18.5873C904.08 18.5873 903.627 18.1463 903.627 17.6422C903.627 17.1382 903.174 16.7601 902.63 16.8861C901.995 16.9491 900.998 15.626 900.363 13.9248C899.004 10.3333 897.281 8.69509 897.281 11.0264C897.281 11.8455 897.009 12.2865 896.647 12.0345C896.284 11.7825 895.378 12.4756 894.562 13.5467L893.112 15.5L891.842 13.9248C890.664 12.2865 889.123 11.7195 889.123 12.9166C889.123 13.2317 888.76 13.5467 888.217 13.5467C887.763 13.5467 887.31 12.6016 887.219 11.4674L887.129 9.45119L886.132 11.6565C885.588 12.8536 884.591 14.2398 883.956 14.6809C883.321 15.1219 882.778 16.3191 882.778 17.2642C882.778 20.4146 878.88 21.6747 877.883 18.8394C877.429 17.6422 876.885 17.3272 875.526 17.6422C874.347 17.8943 873.531 17.7052 873.169 17.0752C872.444 15.689 871.265 15.815 870.54 17.3272C869.724 19.1544 868.364 18.9024 867.277 16.6971C866.733 15.689 865.917 14.9959 865.464 15.1849C865.01 15.3739 864.648 15.1219 864.648 14.6809C864.648 14.0508 864.466 14.0508 863.832 14.7439C863.197 15.3739 862.291 14.5548 860.206 11.5935C857.94 8.25404 857.396 7.81298 856.852 8.94713C856.217 10.4593 852.773 11.3414 851.866 10.2703C851.141 9.45119 846.518 11.2154 846.518 12.2865C846.518 13.3577 841.26 12.9796 840.354 11.9085C839.629 11.0264 839.266 11.2784 838.36 13.1687L837.272 15.5L835.731 14.0508C834.824 13.2317 833.827 12.1605 833.555 11.6565C833.193 10.9634 832.921 11.0264 832.467 12.0975C831.833 13.4207 830.02 14.2398 830.292 13.0426C831.017 10.0183 827.754 11.1524 826.485 14.4288C825.125 18.0203 824.037 18.8394 822.224 17.5792C820.955 16.6341 820.683 16.7601 819.414 18.3983L818.054 20.1625L816.966 16.067C814.882 8.63209 814.972 8.69509 812.071 9.01013C809.987 9.19916 809.443 8.94713 808.445 7.11989L807.267 5.04063L806.361 6.74185C805.817 7.74997 804.729 8.50607 803.732 8.50607C802.825 8.50607 802.1 8.88412 802.1 9.38818C802.1 9.82924 801.556 10.5853 800.831 10.9634C799.834 11.5305 799.381 11.2784 798.474 9.76623C797.568 8.25404 797.114 8.00201 796.117 8.56908C794.214 9.64021 792.129 8.7581 792.038 6.80485C792.038 5.85973 791.494 3.90649 790.86 2.52031L789.772 -1.09579e-05L787.687 2.77234Z" fill="white"/>
<path d="M20.9786 732.153C22.2477 733.98 23.7887 733.917 24.1513 731.964C24.4233 730.83 23.97 730.578 22.2477 730.578C20.1628 730.578 20.0721 730.704 20.9786 732.153Z" fill="white"/>
</svg>
