<?xml version="1.0" standalone="no"?>
<!DOCTYPE svg PUBLIC "-//W3C//DTD SVG 20010904//EN"
 "http://www.w3.org/TR/2001/REC-SVG-20010904/DTD/svg10.dtd">
<svg version="1.0" xmlns="http://www.w3.org/2000/svg"
 width="1280.000000pt" height="1266.000000pt" viewBox="0 0 1280.000000 1266.000000"
 preserveAspectRatio="xMidYMid meet">
<metadata>
Created by potrace 1.15, written by Peter Selinger 2001-2017
</metadata>
<g transform="translate(0.000000,1266.000000) scale(0.100000,-0.100000)"
fill="#000000" stroke="none">
<path d="M2272 12483 l3 -176 110 -29 c61 -16 181 -47 268 -70 l157 -41 0
-200 0 -200 1358 6 c746 4 2378 10 3625 14 l2269 6 -8 166 c-13 257 -13 253
16 262 14 4 123 31 243 59 l217 52 0 164 0 164 -4130 0 -4130 0 2 -177z"/>
<path d="M1490 9473 c0 -2135 0 -2119 45 -2508 120 -1029 431 -1952 908 -2690
186 -287 374 -521 612 -761 374 -376 730 -635 1195 -868 624 -312 1292 -474
2030 -493 1608 -40 3171 683 4101 1897 549 716 869 1594 917 2515 4 88 6 1233
2 2545 l-5 2385 -4902 3 -4903 2 0 -2027z"/>
<path d="M2685 2829 c-155 -25 -281 -55 -405 -95 -74 -25 -141 -48 -147 -52
-10 -6 -15 -155 -21 -625 -5 -339 -11 -619 -13 -622 -3 -2 -29 2 -59 10 -89
24 -344 72 -495 94 -298 43 -473 54 -875 55 -378 1 -386 1 -449 -22 -158 -57
-245 -153 -212 -236 7 -17 14 -44 16 -61 28 -218 119 -848 131 -905 65 -306
146 -411 275 -352 111 50 182 156 203 303 11 79 13 83 49 106 68 43 207 82
324 92 206 16 380 -9 808 -120 149 -38 315 -79 370 -90 106 -22 242 -29 313
-16 29 5 41 4 37 -3 -10 -16 132 -12 198 5 180 47 287 166 287 320 0 91 -32
162 -103 229 -58 55 -48 53 31 -7 29 -22 65 -61 80 -86 l26 -45 7 34 c16 78
29 237 29 357 0 197 -26 374 -78 528 l-27 79 -50 -2 c-150 -8 -326 -39 -433
-76 -37 -13 -76 -27 -87 -30 -11 -4 -2 3 20 15 172 95 486 128 759 80 324 -57
701 -199 1032 -388 679 -388 1254 -604 1864 -699 166 -26 646 -27 810 -1 475
74 829 209 1550 589 541 286 777 396 1045 491 223 79 355 99 506 78 86 -12
262 -62 289 -82 12 -9 11 -10 -5 -4 -47 16 -244 64 -287 70 -46 7 -48 6 -67
-26 -76 -124 -145 -338 -167 -514 -16 -124 -9 -256 17 -348 l10 -38 30 40 c16
23 32 41 35 41 3 0 -4 -13 -15 -29 -67 -94 -81 -216 -36 -307 48 -96 142 -168
260 -199 71 -18 210 -21 199 -4 -5 8 0 10 17 6 118 -30 254 -13 589 73 510
131 623 152 833 151 161 0 267 -22 385 -77 68 -33 72 -37 72 -68 0 -110 54
-242 126 -305 90 -79 173 -89 232 -28 75 77 116 230 172 632 23 160 50 353 61
430 11 77 22 154 24 170 2 17 9 44 16 61 33 83 -57 182 -212 235 -55 18 -77
20 -159 15 -480 -33 -1045 -122 -1515 -240 l-131 -33 -33 341 c-18 188 -46
474 -62 636 -16 162 -29 296 -29 297 0 4 -134 45 -220 67 -683 174 -1351 47
-1962 -375 -890 -613 -1812 -815 -2698 -589 -330 84 -697 245 -1010 443 -571
361 -951 526 -1410 609 -92 16 -165 21 -360 24 -135 1 -272 -2 -305 -7z m-485
-1394 c-13 -14 -26 -22 -29 -19 -3 3 5 14 18 25 33 27 39 24 11 -6z m8520 -40
c18 -19 20 -25 8 -25 -9 0 -23 11 -32 25 -9 14 -13 25 -8 25 5 0 19 -11 32
-25z m-669 -515 c-9 -23 -10 -23 -10 11 -1 20 2 52 7 70 7 34 7 34 10 -11 2
-25 -1 -57 -7 -70z m-7293 -50 c0 -34 -2 -40 -8 -25 -5 11 -8 45 -8 75 0 45 2
50 8 25 4 -16 8 -50 8 -75z"/>
</g>
</svg>
