<?xml version="1.0" standalone="no"?>
<!DOCTYPE svg PUBLIC "-//W3C//DTD SVG 20010904//EN"
 "http://www.w3.org/TR/2001/REC-SVG-20010904/DTD/svg10.dtd">
<svg version="1.0" xmlns="http://www.w3.org/2000/svg"
 width="802.000000pt" height="1280.000000pt" viewBox="0 0 802.000000 1280.000000"
 preserveAspectRatio="xMidYMid meet">
<metadata>
Created by potrace 1.15, written by Peter Selinger 2001-2017
</metadata>
<g transform="translate(0.000000,1280.000000) scale(0.100000,-0.100000)"
fill="#000000" stroke="none">
<path d="M1633 12790 c-91 -19 -156 -70 -195 -155 -20 -44 -23 -66 -23 -185 0
-74 3 -174 8 -222 l7 -87 -36 24 c-96 65 -269 92 -342 52 -71 -39 -92 -132
-51 -228 23 -52 22 -123 -1 -184 -9 -25 -11 -25 -39 -10 -41 21 -77 19 -99 -6
-22 -23 -39 -79 -77 -254 -15 -66 -42 -154 -60 -195 -38 -84 -59 -175 -49
-214 15 -62 107 -108 244 -121 116 -12 150 19 158 141 2 41 7 74 9 74 2 0 42
-23 89 -51 133 -80 229 -113 382 -129 208 -22 382 42 444 163 26 52 22 103
-21 246 -29 97 -39 188 -25 225 13 35 181 19 651 -63 613 -107 963 -141 1438
-141 471 0 854 38 1460 145 318 56 457 75 549 75 68 0 74 -2 80 -22 10 -40 6
-151 -9 -218 -15 -69 -19 -152 -9 -212 15 -88 134 -169 278 -189 173 -23 371
22 530 122 l91 57 6 -62 c6 -70 29 -118 72 -150 24 -18 43 -21 115 -21 75 0
95 4 144 28 58 29 90 62 101 106 10 41 -13 119 -49 169 -60 82 -84 144 -114
300 -16 83 -36 164 -44 181 -22 41 -54 48 -104 22 -23 -12 -43 -21 -45 -21 -9
0 -27 90 -27 133 0 25 9 64 20 88 33 74 23 135 -32 186 -57 53 -214 50 -336
-7 l-63 -29 8 112 c20 274 3 377 -72 452 -111 112 -315 112 -1000 0 -563 -92
-816 -118 -1270 -135 -589 -20 -1102 16 -1770 125 -352 57 -457 72 -590 85
-127 12 -271 11 -332 0z"/>
<path d="M3075 10109 c-198 -3 -405 -9 -460 -13 -605 -41 -845 -85 -1009 -184
-56 -33 -67 -36 -175 -43 -180 -13 -274 -39 -341 -96 -81 -70 -98 -159 -59
-305 12 -44 19 -81 17 -83 -7 -8 -64 14 -192 72 -136 63 -260 97 -321 91 -96
-11 -216 -91 -257 -172 -28 -54 -27 -136 2 -246 28 -104 37 -254 21 -345 -7
-37 -30 -115 -52 -173 -27 -72 -38 -114 -34 -131 33 -132 306 -190 420 -89 49
43 60 83 40 152 -9 30 -15 71 -13 90 l3 35 74 -46 c41 -25 109 -70 150 -100
137 -102 245 -137 401 -132 115 5 176 30 222 93 26 36 29 47 26 94 -3 34 -17
77 -40 122 l-36 70 157 -8 c204 -9 4788 -9 4993 0 l157 8 -39 -82 c-57 -116
-52 -164 22 -235 47 -46 105 -63 210 -63 155 0 239 30 398 144 106 76 205 135
213 126 3 -3 1 -27 -5 -55 -22 -118 -21 -158 2 -188 41 -52 95 -71 195 -71
104 0 178 25 220 76 35 42 41 73 22 127 -9 25 -31 87 -49 136 -29 83 -32 100
-32 215 0 104 4 144 28 240 49 200 16 284 -144 369 -115 62 -206 50 -435 -53
-142 -64 -195 -83 -195 -69 0 5 9 40 20 78 23 81 26 181 6 228 -45 108 -169
160 -418 176 -120 8 -142 12 -219 44 -254 106 -587 157 -1219 187 -262 12
-1750 18 -2275 9z"/>
<path d="M825 7686 c-114 -28 -145 -66 -145 -177 0 -106 14 -133 126 -250 56
-58 113 -127 127 -155 59 -118 107 -314 107 -440 0 -54 3 -64 20 -69 42 -13
182 59 216 111 14 21 14 27 -5 70 -12 26 -19 49 -17 51 3 3 19 2 36 -2 39 -9
61 -43 97 -150 35 -106 35 -177 1 -275 -59 -168 -51 -193 85 -268 621 -344
1556 -510 2742 -489 951 18 1630 141 2207 402 189 85 258 140 258 206 0 12
-13 64 -30 116 -44 136 -39 189 31 358 30 73 63 105 108 105 26 0 26 -6 1 -48
-38 -63 -19 -108 67 -154 68 -37 108 -43 138 -24 22 15 25 24 25 77 0 124 71
370 132 461 18 27 69 79 114 117 105 89 124 126 124 243 0 70 -4 90 -20 111
-63 80 -350 109 -604 61 -240 -46 -396 -158 -396 -285 0 -54 9 -77 69 -178 54
-88 58 -81 -98 -142 -383 -148 -1017 -260 -1761 -311 -229 -16 -836 -16 -1065
0 -574 40 -1033 107 -1425 207 -236 60 -489 155 -490 184 0 7 18 56 40 107 28
66 40 108 40 142 0 179 -275 303 -670 301 -74 0 -157 -6 -185 -13z"/>
<path d="M3170 4699 c-534 -16 -1325 -50 -1385 -60 -246 -41 -359 -144 -341
-311 3 -31 14 -80 25 -109 l20 -51 -32 5 c-18 3 -98 33 -179 66 -271 113 -394
127 -532 61 -121 -57 -186 -142 -186 -242 0 -19 11 -72 25 -119 14 -46 30
-124 37 -174 14 -116 -1 -199 -67 -350 -55 -125 -56 -166 -8 -217 85 -90 292
-117 425 -55 97 44 109 80 77 229 -7 32 -9 61 -5 65 9 10 121 -47 243 -124
195 -122 301 -157 483 -157 100 -1 122 2 167 23 29 13 71 43 93 67 36 39 40
49 40 97 0 40 -9 70 -35 126 -19 40 -35 75 -35 78 0 2 35 1 78 -2 42 -4 273 0
512 9 1191 42 1728 42 2920 0 239 -9 472 -13 518 -9 45 3 82 3 82 0 0 -3 -18
-38 -39 -78 -37 -67 -45 -97 -42 -154 2 -35 65 -98 124 -124 108 -48 346 -33
497 30 36 15 115 59 175 98 101 64 225 133 241 133 10 0 -3 -84 -21 -135 -34
-102 33 -172 189 -197 86 -13 190 0 265 33 57 25 80 46 98 87 14 33 12 38 -36
140 -71 151 -85 212 -78 347 4 77 13 135 31 194 58 190 15 301 -149 383 -140
71 -238 59 -540 -63 -94 -38 -180 -69 -192 -69 -20 0 -20 0 3 65 86 237 -4
358 -301 404 -72 11 -829 43 -1459 61 -408 11 -1282 11 -1706 -1z"/>
<path d="M1705 2330 c-249 -17 -401 -64 -450 -138 -35 -54 -49 -160 -41 -319
4 -73 5 -133 2 -133 -17 0 -31 55 -32 125 -2 144 -13 202 -45 230 -56 47 -156
45 -314 -5 -123 -40 -141 -59 -138 -151 1 -38 -3 -69 -8 -69 -5 0 -9 8 -9 18
0 10 -12 29 -26 43 -41 39 -101 33 -205 -18 -47 -24 -95 -43 -108 -43 -30 0
-88 25 -129 57 l-34 26 7 -24 c13 -41 43 -76 81 -94 48 -22 150 -16 214 14 25
11 62 21 83 21 34 0 37 -2 37 -30 0 -17 9 -38 22 -50 25 -23 88 -43 110 -35
11 4 25 -16 51 -72 20 -43 54 -110 76 -150 21 -39 37 -74 34 -77 -4 -3 -17 -6
-29 -6 -26 0 -54 46 -94 158 -44 120 -106 140 -232 74 -154 -82 -248 -91 -362
-39 -32 15 -61 25 -64 22 -16 -16 18 -63 68 -93 63 -37 96 -48 197 -63 67 -10
72 -13 62 -30 -23 -45 -121 -129 -185 -160 -62 -31 -77 -34 -156 -34 -49 0
-88 -2 -88 -6 0 -13 69 -69 110 -90 56 -28 175 -37 252 -19 29 7 122 39 207
72 84 33 175 62 201 65 l48 6 30 -59 c33 -65 82 -117 125 -133 78 -30 194 7
212 67 5 17 12 32 15 32 3 0 16 -20 28 -45 29 -61 86 -121 147 -156 67 -39
150 -41 191 -5 29 25 38 76 21 123 -7 19 -4 25 20 34 144 55 582 49 858 -12
293 -64 504 -159 1021 -455 455 -260 648 -353 924 -444 233 -77 437 -123 700
-156 159 -21 665 -29 865 -15 163 12 412 37 453 46 20 5 22 2 22 -30 0 -85
101 -130 194 -86 74 37 151 139 171 229 8 38 17 40 39 7 32 -48 141 -54 225
-11 51 27 98 90 112 150 l12 56 61 0 c34 0 115 -9 181 -20 203 -34 343 -24
430 30 41 25 115 105 115 124 0 12 -7 12 -47 -1 -78 -24 -195 -14 -273 24 -70
33 -156 101 -143 113 4 3 28 12 53 19 131 38 240 129 240 203 0 20 -3 19 -38
-14 -88 -87 -224 -106 -413 -59 -86 22 -100 23 -129 11 -39 -16 -55 -51 -65
-135 -11 -101 -33 -165 -55 -165 -11 0 -20 2 -20 3 0 2 16 66 35 143 19 76 35
146 35 155 0 11 14 20 43 28 79 20 116 70 93 123 -10 23 44 33 104 19 67 -16
130 -13 175 8 64 29 113 98 103 145 -2 11 -14 2 -38 -31 -19 -25 -52 -55 -74
-66 l-39 -20 -82 21 c-46 12 -106 22 -135 22 -44 0 -56 -4 -81 -29 -16 -16
-29 -39 -29 -50 0 -11 -4 -22 -9 -25 -4 -3 -11 22 -14 55 -3 33 -12 70 -20 83
-39 58 -312 80 -405 32 -58 -30 -69 -54 -71 -146 0 -47 5 -109 11 -138 8 -39
8 -56 0 -64 -8 -8 -13 -3 -17 18 -64 295 -111 394 -197 413 -20 5 -98 -1 -203
-15 -270 -37 -462 -47 -739 -41 -401 8 -706 60 -1071 182 -300 100 -416 152
-1125 512 -696 353 -1086 451 -1645 413z"/>
</g>
</svg>
