<svg id="e5ZRWky0Vvr1" xmlns="http://www.w3.org/2000/svg" xmlns:xlink="http://www.w3.org/1999/xlink" viewBox="0 0 1920 1080" shape-rendering="geometricPrecision" text-rendering="geometricPrecision"><rect width="1920" height="506.148815" rx="0" ry="0" transform="translate(0 0.000001)" fill="#ffd699" stroke-width="0"/><rect width="419.85282" height="273.753067" rx="0" ry="0" transform="translate(0 403.123467)" fill="#ffd699" stroke-width="0"/><rect width="419.85282" height="273.753067" rx="0" ry="0" transform="translate(419.85282 403.123494)" fill="#ffd699" stroke-width="0"/><rect width="419.85282" height="273.753067" rx="0" ry="0" transform="translate(814.83238 418.224507)" fill="#ffd699" stroke-width="0"/><rect width="419.85282" height="273.753067" rx="0" ry="0" transform="translate(1092.068685 403.123494)" fill="#ffd699" stroke-width="0"/><rect width="419.85282" height="273.753067" rx="0" ry="0" transform="matrix(1 0 0 1.238704 0 352.878555)" fill="#fff" stroke-width="0"/><rect width="419.85282" height="273.753067" rx="0" ry="0" transform="matrix(1 0 0 2.054191 814.83238 224.978273)" fill="#fff" stroke-width="0"/><rect width="419.85282" height="273.753067" rx="0" ry="0" transform="matrix(1 0 0 1.367082 1511.921505 418.224507)" fill="#fff" stroke-width="0"/></svg>
